<svg width="160" height="83" viewBox="0 0 160 83" fill="none" xmlns="http://www.w3.org/2000/svg">
<path d="M99.9465 68.8374C99.4024 69.1032 98.6242 69.2866 97.8143 69.2866C95.3088 69.2866 93.822 67.6163 93.822 64.9464C93.822 62.1182 95.4291 60.4732 97.9092 60.4732C98.7254 60.4732 99.4087 60.663 99.8832 60.8971L100.117 60.2138C99.8832 60.0999 99.2252 59.8026 97.9092 59.8026C94.8849 59.8026 92.9995 61.8968 92.9995 64.9527C92.9995 68.4199 95.1823 69.9636 97.5865 69.9636C98.7507 69.9636 99.6808 69.7295 100.162 69.5018L99.9465 68.8374ZM106.837 69.1348H102.578V59.9481H101.769V69.8118H106.837V69.1348ZM111.828 59.9481H110.993L107.545 69.8118H108.361L109.519 66.4269H113.258L114.423 69.8118H115.264L111.828 59.9481ZM109.728 65.7815L110.86 62.5421C111.069 61.9221 111.24 61.3527 111.373 60.7643H111.405C111.556 61.3337 111.702 61.9031 111.923 62.5927L113.037 65.7879H109.728V65.7815ZM121.306 60.2455C120.965 60.024 120.262 59.7899 119.358 59.7899C117.656 59.7899 116.453 60.8402 116.453 62.2954C116.453 63.662 117.447 64.5098 118.965 65.0603C120.332 65.6044 120.876 66.2497 120.876 67.3316C120.876 68.4895 120.035 69.2803 118.611 69.2803C117.807 69.2803 117.042 69.0146 116.491 68.6413L116.219 69.312C116.713 69.6789 117.694 69.951 118.541 69.951C120.598 69.951 121.692 68.7425 121.692 67.2494C121.692 65.7942 120.851 65.016 119.244 64.3516C117.877 63.7822 117.257 63.2444 117.257 62.1752C117.257 61.4033 117.788 60.4606 119.301 60.4606C120.129 60.4606 120.756 60.7326 121.028 60.9224L121.306 60.2455ZM128.051 60.2455C127.709 60.024 127.007 59.7899 126.102 59.7899C124.4 59.7899 123.198 60.8402 123.198 62.2954C123.198 63.662 124.191 64.5098 125.71 65.0603C127.076 65.6044 127.621 66.2497 127.621 67.3316C127.621 68.4895 126.779 69.2803 125.355 69.2803C124.552 69.2803 123.786 69.0146 123.236 68.6413L122.964 69.312C123.457 69.6789 124.438 69.951 125.299 69.951C127.348 69.951 128.443 68.7425 128.443 67.2494C128.443 65.7942 127.602 65.016 125.994 64.3516C124.628 63.7822 124.008 63.2444 124.008 62.1752C124.008 61.4033 124.539 60.4606 126.051 60.4606C126.88 60.4606 127.507 60.7326 127.779 60.9224L128.051 60.2455ZM135.365 69.1348H131.075V64.9654H134.915V64.2884H131.075V60.6187H135.143V59.9481H130.265V69.8118H135.371V69.1348H135.365ZM141.552 60.2455C141.211 60.024 140.508 59.7899 139.604 59.7899C137.902 59.7899 136.706 60.8402 136.706 62.2954C136.706 63.662 137.693 64.5098 139.211 65.0603C140.578 65.6044 141.122 66.2497 141.122 67.3316C141.122 68.4895 140.281 69.2803 138.863 69.2803C138.054 69.2803 137.282 69.0146 136.738 68.6413L136.466 69.312C136.959 69.6789 137.94 69.951 138.8 69.951C140.85 69.951 141.945 68.7425 141.945 67.2494C141.945 65.7942 141.103 65.016 139.502 64.3516C138.136 63.7822 137.51 63.2444 137.51 62.1752C137.51 61.4033 138.047 60.4606 139.553 60.4606C140.388 60.4606 141.008 60.7326 141.28 60.9224L141.552 60.2455Z" fill="#003760"/>
<path d="M89.7538 29.7244V57.4996H81.0669V29.7244H81.0985C82.1488 30.9265 83.6926 31.6857 85.4072 31.6857C87.1218 31.6857 88.6655 30.9265 89.7158 29.7244H89.7538V29.7244Z" fill="#003760"/>
<path d="M59.2772 33.2294L58.828 29.7243H51.3369C51.4381 32.3879 51.533 35.4502 51.533 38.9047V68.5464H60.2073V55.2282H60.3591C61.3525 56.7593 63.472 58.0373 66.2811 58.0373C71.7096 58.0373 77.3786 53.5452 77.3786 43.3841C77.3786 35.0958 73.1838 29.1738 67.072 29.1738C63.7124 29.1738 61.0045 30.6543 59.3721 33.2294H59.2772V33.2294ZM60.2073 40.9736C60.2073 38.0126 62.0864 36.1841 64.111 36.1841C67.0214 36.1841 68.5968 39.0438 68.5968 43.6878C68.5968 48.0281 67.072 51.2359 64.0161 51.2359C61.789 51.2359 60.2136 49.1606 60.2136 46.3451V40.9736H60.2073Z" fill="#003760"/>
<path d="M46.5663 29.7244H37.8794V46.7438C37.8794 49.553 36.1522 50.9386 34.3743 50.9386C31.9574 50.9386 30.9261 48.7748 30.9261 45.0166V29.7244H22.2393V46.2503C22.2393 54.2476 25.3964 58.0437 31.021 58.0437C35.064 58.0437 37.5821 55.8167 38.7652 54.0514H38.9171L39.3157 57.4996H46.8068C46.7055 55.0321 46.5663 51.9762 46.5663 48.5786V29.7244Z" fill="#003760"/>
<path d="M17.1713 19.3608H8.48442V44.1814C8.48442 49.4581 6.46613 50.6918 3.60635 50.6918C2.22708 50.6918 0.987002 50.4957 0 50.1983V57.5566C1.30968 57.8792 3.01162 58.0437 4.49213 58.0437C11.7934 58.0437 17.1713 55.184 17.1713 44.0802V19.3608Z" fill="#003760"/>
<path d="M151.739 65.3639C145.633 74.0508 136.206 80.4094 124.925 82.3771C113.638 84.3448 102.617 81.5483 93.936 75.4364C88.9314 71.9187 84.705 67.3063 81.6491 61.8715C82.9398 63.5102 84.4962 65.6234 85.8945 67.2241C94.9736 77.6382 109.038 83.0794 123.394 80.5739C130.575 79.3275 136.934 76.2842 142.103 71.9883C151.024 65.2754 156.636 54.7031 156.876 43.2133C157.041 35.0769 154.643 27.3011 149.828 20.6894C141.787 9.62364 127.893 3.4612 113.499 5.96667C102.996 7.80148 95.1318 13.8753 89.716 22.1383C88.6657 20.9489 87.1282 20.1959 85.42 20.1959C83.7117 20.1959 82.1679 20.9552 81.1177 22.1446H81.1113C81.9402 20.5819 82.8576 19.0698 83.8762 17.6272C89.969 8.94665 99.3899 2.58808 110.677 0.620405C121.964 -1.34095 132.986 1.44923 141.666 7.56106C150.353 13.6665 156.712 23.0937 158.68 34.3746C160.641 45.6619 157.851 56.6771 151.739 65.3639Z" fill="url(#paint0_linear)"/>
<path d="M142.388 40.7837C142.388 30.8947 135.789 29.3193 132.948 29.3193C128.538 29.3193 125.242 31.8058 123.767 34.7478H123.666L123.407 29.9837H120.572C120.673 32.1095 120.768 34.0392 120.768 36.6776V57.4173H123.919V40.4294C123.919 36.0702 127.418 31.9577 132.03 31.9577C137.459 31.9577 139.224 36.3169 139.224 41.1887V57.4173H142.375V40.7837H142.388Z" fill="#003760"/>
<path d="M105.381 29.3193C98.5798 29.3193 92.5439 34.4948 92.5439 43.9282C92.5439 52.6531 97.9725 58.031 105.027 58.031C111.063 58.031 117.902 53.6654 117.902 43.4221C117.902 35.1022 112.936 29.3193 105.381 29.3193ZM114.714 43.5676C114.714 50.3184 110.601 55.4875 105.128 55.4875C99.7503 55.4875 95.7517 50.3184 95.7517 43.7764C95.7517 38.0442 98.6368 31.8564 105.28 31.8564C112.025 31.8564 114.714 38.5503 114.714 43.5676Z" fill="#003760"/>
<path fill-rule="evenodd" clip-rule="evenodd" d="M85.4073 30.0976C87.6976 30.0976 89.5704 28.2312 89.5704 25.9345C89.5704 23.6441 87.7039 21.7714 85.4073 21.7714C83.1169 21.7714 81.2441 23.6378 81.2441 25.9345C81.2505 28.2248 83.1169 30.0976 85.4073 30.0976Z" fill="url(#paint1_linear)"/>
<defs>
<linearGradient id="paint0_linear" x1="130.89" y1="79.2151" x2="106.677" y2="7.31905" gradientUnits="userSpaceOnUse">
<stop stop-color="#FFC91D"/>
<stop offset="1" stop-color="#E55200"/>
</linearGradient>
<linearGradient id="paint1_linear" x1="106.158" y1="87.5442" x2="81.945" y2="15.6481" gradientUnits="userSpaceOnUse">
<stop stop-color="#FFC91D"/>
<stop offset="1" stop-color="#E55200"/>
</linearGradient>
</defs>
</svg>
