<svg xmlns="http://www.w3.org/2000/svg" xmlns:xlink="http://www.w3.org/1999/xlink" viewBox="0 0 985.1 813.04"><defs><style>.cls-1{fill:#f5d100;}.cls-2{isolation:isolate;}.cls-3{fill:#fff3f7;}.cls-4{fill:#f2d6e1;}.cls-5{fill:#e8c556;}.cls-30,.cls-6{fill:#fff;}.cls-7{fill:#27429c;}.cls-8{fill:#74a0ed;}.cls-24,.cls-9{fill:#5571e9;}.cls-9{opacity:0.16;}.cls-10{clip-path:url(#clip-path);}.cls-11,.cls-12,.cls-16,.cls-17,.cls-19,.cls-25,.cls-28{fill:none;}.cls-11,.cls-25{stroke:#3d5ac4;}.cls-11,.cls-12,.cls-16,.cls-17{stroke-miterlimit:10;}.cls-11,.cls-12,.cls-19{stroke-width:2.65px;}.cls-12,.cls-19{stroke:#5571e9;}.cls-13{fill:#231c61;}.cls-14{fill:#3d5ac4;}.cls-15{fill:#2f4dab;}.cls-16,.cls-17{stroke:#231c61;}.cls-16{stroke-width:2.16px;}.cls-17{stroke-width:1.11px;}.cls-18{fill:#373482;}.cls-19,.cls-25{stroke-linecap:round;stroke-linejoin:round;}.cls-20{clip-path:url(#clip-path-2);}.cls-21{fill:#fafafa;}.cls-22{fill:#e8c400;}.cls-23{clip-path:url(#clip-path-3);}.cls-25{stroke-width:1.14px;}.cls-26{fill:#ee7249;}.cls-27{fill:#ffeaa8;}.cls-27,.cls-30{mix-blend-mode:soft-light;}.cls-29{fill:#fffcfa;}.cls-31,.cls-34,.cls-35{fill:#e63336;}.cls-31,.cls-39{opacity:0.6;mix-blend-mode:multiply;}.cls-32,.cls-39{fill:#efe4dc;}.cls-33{fill:#ea5f39;}.cls-35{opacity:0.3;}.cls-36{fill:#213047;}.cls-37{fill:#2e4360;}.cls-38{fill:#0e1a2b;}.cls-40{fill:#ffc871;}.cls-41{fill:#fc8460;}.cls-42{fill:#38c5fc;}.cls-43{fill:#2f256a;}.cls-44{fill:#1e1951;}.cls-45{fill:#2c2f87;}.cls-46{fill:#0faeff;}.cls-47{fill:#242357;}.cls-48{fill:#0771e9;}.cls-49{fill:#b3d3ff;}</style><clipPath id="clip-path"><rect class="cls-1" x="262.08" y="412.53" width="464.59" height="51.29"/></clipPath><clipPath id="clip-path-2"><path class="cls-1" d="M327.79,610.63l28-72.33a4,4,0,0,1,7.55,0l28,72.33Z"/></clipPath><clipPath id="clip-path-3"><path class="cls-1" d="M734.18,610.85l28-72.33a4,4,0,0,1,7.54,0l28,72.33Z"/></clipPath></defs><g class="cls-2"><g id="Layer_2" data-name="Layer 2"><g id="Layer_1-2" data-name="Layer 1"><path class="cls-3" d="M975.25,442.31c10.56-34.23,13-70.64,5.46-105.65-11.85-54.77-50-121.07-160.11-149.68C612.15,132.82,539.77-25.58,344.78,24.86c0,0-104.64,19-154.17,192.17S-53,393.13,13.85,543.89c10.92,24.64,40.32,51.52,82.54,76.91l790.76-2.65C941.8,552.44,958.81,495.61,975.25,442.31Z"/><path class="cls-4" d="M788.66,318.48H759V286a34.36,34.36,0,0,0-26.57-33.45V212.3H721.51v39.52A34.36,34.36,0,0,0,690.27,286v33.41H660.75v37.22h-2v69.19l-53.65-.38v-82.7H543.65v60.61H500.53v58.87H448.41V618.08H621.57v0h37.2v0H875.9V421.57H788.59Z"/><polygon class="cls-4" points="176.46 404.13 176.46 326.66 205.5 326.66 205.5 285.23 216.42 285.23 216.42 326.66 243.18 326.66 243.18 404.13 273.2 404.13 273.2 450.54 321.04 450.54 321.04 292.44 420.91 292.44 420.91 618.08 355.83 618.08 327.79 618.08 257.24 618.08 224.66 618.08 139.52 618.08 139.52 404.13 176.46 404.13"/><path class="cls-5" d="M722.12,617.29l-455.22.36a31.21,31.21,0,0,1-31.24-31.19h0l517.65-.41h0A31.21,31.21,0,0,1,722.12,617.29Z"/><path class="cls-6" d="M722.11,606.55l-455.21.35a31.21,31.21,0,0,1-29.3-20.45h-1.94a31.21,31.21,0,0,0,31.24,31.19l455.22-.36a31.21,31.21,0,0,0,31.19-31.24h-1.94A31.2,31.2,0,0,1,722.11,606.55Z"/><path class="cls-7" d="M523.9,596.68l-58.81.05a10.45,10.45,0,0,1-10.46-10.45h0l79.71-.06h0A10.45,10.45,0,0,1,523.9,596.68Z"/><path class="cls-5" d="M726.67,586.07l-464.37.37-.22-280.29A29.11,29.11,0,0,1,291.17,277l406.15-.32a29.11,29.11,0,0,1,29.13,29.09Z"/><rect class="cls-8" x="286.36" y="301.06" width="416.01" height="260.98"/><polygon class="cls-9" points="425 301.12 286.37 439.97 286.47 562.2 286.77 562.2 547.54 301.02 425 301.12"/><polygon class="cls-9" points="340.18 562.17 401.61 562.11 662.38 300.93 600.95 300.99 340.18 562.17"/><polygon class="cls-9" points="653.54 561.91 702.43 512.94 702.36 420.29 555.59 561.97 653.54 561.91"/><rect class="cls-1" x="262.08" y="412.53" width="464.59" height="51.29"/><g class="cls-10"><polygon class="cls-6" points="320.04 481.81 280.07 481.81 314.48 403.1 354.45 403.1 320.04 481.81"/><polygon class="cls-6" points="405.29 481.81 365.31 481.81 399.72 403.1 439.7 403.1 405.29 481.81"/><polygon class="cls-6" points="490.54 481.81 450.56 481.81 484.97 403.1 524.95 403.1 490.54 481.81"/><polygon class="cls-6" points="575.78 481.81 535.81 481.81 570.22 403.1 610.19 403.1 575.78 481.81"/><polygon class="cls-6" points="661.03 481.81 621.06 481.81 655.47 403.1 695.44 403.1 661.03 481.81"/></g><line class="cls-11" x1="826.11" y1="505.64" x2="789.44" y2="541.79"/><line class="cls-11" x1="826.11" y1="467.01" x2="789.44" y2="503.16"/><line class="cls-11" x1="826.11" y1="428.39" x2="789.44" y2="464.53"/><line class="cls-11" x1="826.11" y1="389.76" x2="789.44" y2="425.91"/><line class="cls-11" x1="826.11" y1="351.13" x2="789.44" y2="387.28"/><line class="cls-11" x1="826.11" y1="312.51" x2="789.44" y2="348.65"/><line class="cls-11" x1="826.11" y1="273.88" x2="789.44" y2="310.03"/><line class="cls-11" x1="826.11" y1="235.25" x2="789.44" y2="271.4"/><line class="cls-11" x1="826.11" y1="196.63" x2="789.44" y2="232.77"/><line class="cls-11" x1="826.11" y1="158" x2="789.44" y2="194.15"/><line class="cls-11" x1="826.11" y1="119.37" x2="789.44" y2="155.52"/><line class="cls-11" x1="789.44" y1="503.16" x2="826.11" y2="503.16"/><line class="cls-11" x1="789.44" y1="464.53" x2="826.11" y2="464.53"/><line class="cls-11" x1="789.44" y1="425.91" x2="826.11" y2="425.91"/><line class="cls-11" x1="789.44" y1="387.28" x2="826.11" y2="387.28"/><line class="cls-11" x1="789.44" y1="348.65" x2="826.11" y2="348.65"/><line class="cls-11" x1="789.44" y1="310.03" x2="826.11" y2="310.03"/><line class="cls-11" x1="789.44" y1="271.4" x2="826.11" y2="271.4"/><line class="cls-11" x1="789.44" y1="232.77" x2="826.11" y2="232.77"/><line class="cls-11" x1="789.44" y1="194.15" x2="826.11" y2="194.15"/><line class="cls-11" x1="789.44" y1="155.52" x2="826.11" y2="155.52"/><line class="cls-12" x1="789.44" y1="552.25" x2="789.44" y2="125.55"/><line class="cls-12" x1="826.11" y1="552.25" x2="826.11" y2="125.55"/><rect class="cls-13" x="770.54" y="541.79" width="73.02" height="75.86"/><rect class="cls-14" x="775.85" y="53.3" width="62.55" height="72.25" rx="4.3"/><path class="cls-15" d="M781.55,70.72h30.55A3.26,3.26,0,0,1,815.35,74v27.29a3.26,3.26,0,0,1-3.26,3.26H781.55a0,0,0,0,1,0,0V70.72A0,0,0,0,1,781.55,70.72Z"/><line class="cls-16" x1="547.54" y1="129.49" x2="576.87" y2="214.7"/><line class="cls-16" x1="527.13" y1="119.37" x2="469.94" y2="196.63"/><rect class="cls-1" x="451.69" y="169.22" width="136.07" height="136.07" rx="6.84" transform="matrix(-0.61, -0.79, 0.79, -0.61, 646.97, 794.21)"/><rect class="cls-17" x="464.06" y="181.58" width="111.33" height="111.33" rx="5.59" transform="translate(646.97 794.21) rotate(-127.41)"/><path class="cls-13" d="M524.74,266.09c-1.53,11.48-18.94,9.15-17.41-2.32S526.28,254.51,524.74,266.09ZM532.23,202l-6.83,48.23-14.65-2c2.17-16.23,4-32,6.15-48.32Z"/><circle class="cls-13" cx="539.17" cy="112.16" r="24.52"/><path class="cls-18" d="M556.51,112.16a17.34,17.34,0,1,1-17.34-17.34A17.34,17.34,0,0,1,556.51,112.16Z"/><line class="cls-11" x1="635.32" y1="1.32" x2="635.32" y2="53.3"/><line class="cls-11" x1="588.71" y1="1.32" x2="588.71" y2="53.3"/><line class="cls-11" x1="681.78" y1="1.32" x2="681.78" y2="53.3"/><line class="cls-11" x1="733.4" y1="1.32" x2="733.4" y2="53.3"/><line class="cls-11" x1="781.55" y1="1.32" x2="781.55" y2="53.3"/><line class="cls-11" x1="831.47" y1="1.32" x2="831.47" y2="53.3"/><line class="cls-11" x1="880.51" y1="1.32" x2="880.51" y2="53.3"/><line class="cls-11" x1="586.29" y1="53.3" x2="635.32" y2="1.32"/><line class="cls-11" x1="635.32" y1="53.3" x2="684.36" y2="1.32"/><line class="cls-11" x1="684.36" y1="53.3" x2="733.4" y2="1.32"/><line class="cls-11" x1="733.4" y1="53.3" x2="782.43" y2="1.32"/><line class="cls-11" x1="782.43" y1="53.3" x2="831.47" y2="1.32"/><line class="cls-11" x1="831.47" y1="53.3" x2="880.51" y2="1.32"/><polygon class="cls-19" points="539.17 53.3 938.98 53.3 885.15 1.32 580.53 1.32 539.17 53.3"/><line class="cls-19" x1="539.17" y1="53.3" x2="539.17" y2="112.16"/><path class="cls-1" d="M327.79,610.63l28-72.33a4,4,0,0,1,7.55,0l28,72.33Z"/><g class="cls-20"><rect class="cls-21" x="334.28" y="553.85" width="49.69" height="15.35"/><rect class="cls-21" x="331.56" y="582.86" width="56.2" height="15.35"/></g><rect class="cls-22" x="322.68" y="610.63" width="74.07" height="6.1"/><path class="cls-1" d="M734.18,610.85l28-72.33a4,4,0,0,1,7.54,0l28,72.33Z"/><g class="cls-23"><rect class="cls-21" x="740.66" y="554.07" width="49.69" height="15.35"/><rect class="cls-21" x="737.95" y="583.08" width="56.2" height="15.35"/></g><rect class="cls-22" x="729.07" y="610.85" width="74.07" height="6.1"/><circle class="cls-24" cx="175.79" cy="489.73" r="58.12" transform="matrix(0.15, -0.99, 0.99, 0.15, -334.5, 591.46)"/><line class="cls-25" x1="175.79" y1="469.02" x2="175.79" y2="616.72"/><line class="cls-25" x1="153.19" y1="472.02" x2="175.79" y2="497.37"/><path class="cls-25" d="M195.83,496c-1.61,1.62-20,20.81-20,20.81"/><line class="cls-6" x1="0.85" y1="618.14" x2="975.74" y2="618.14"/><path class="cls-26" d="M884.43,637.23,848.34,532.12a5.77,5.77,0,0,0-3.29-3.51,17.17,17.17,0,0,0-13.31,0,5.83,5.83,0,0,0-3.29,3.51L792.37,637.23C792.37,654.08,884.43,654.08,884.43,637.23Z"/><path class="cls-27" d="M835.1,527.6a16.73,16.73,0,0,1,3.58-.32c2.06.14,4.24.75,5.17,2.08,1.58,2.24,2.42,5.9,4.91,15.39,3.66,14,17.68,70.84,25.07,100.9a86.38,86.38,0,0,1-15.34,3.08c-4.67-31.92-13.66-93.36-15.34-104-2.28-14.48-2.18-17.26-8.08-17.14Z"/><path class="cls-28" d="M852.11,647.12l2.13-.14Z"/><path class="cls-28" d="M843.15,647.49q1.65,0,3.27-.09Q844.8,647.46,843.15,647.49Z"/><path class="cls-28" d="M867.85,645.37l.95-.17Z"/><path class="cls-29" d="M815.81,569l8-23.17c2.51,1.67,8.56,3,14.63,3s12.12-1.31,14.63-3L861,569c-2.79,2.68-12.68,4.51-22.59,4.51S818.61,571.64,815.81,569Z"/><path class="cls-29" d="M838.4,622.85c-18.32,0-36.61-2.85-38.32-8.08l7.83-22.8c2.54,3.86,16.5,6.18,30.49,6.18s28-2.32,30.49-6.19l7.83,22.8C875,620,856.73,622.85,838.4,622.85Z"/><path class="cls-30" d="M851,597.56c1.21,8.18,2.45,16.56,3.6,24.54A87.17,87.17,0,0,0,867.52,620c-1.95-7.86-4-16.15-6-24.24A74.33,74.33,0,0,1,851,597.56Z"/><path class="cls-6" d="M843.7,548.42c.78,5.25,2.11,14,3.67,24.54a53.25,53.25,0,0,0,8.14-1.48c-2.54-10.22-4.71-18.85-6.08-24.17A31.32,31.32,0,0,1,843.7,548.42Z"/><path class="cls-6" d="M851,597.52c1.22,8.18,2.45,16.56,3.6,24.54a87.54,87.54,0,0,0,12.94-2.12c-2-7.86-4-16.15-6-24.24A74.74,74.74,0,0,1,851,597.52Z"/><path class="cls-26" d="M822.71,649.19l2.36.2Z"/><path class="cls-26" d="M828.36,649.6l2.43.11Z"/><path class="cls-26" d="M825.33,649.41l2.73.17Z"/><path class="cls-26" d="M817.12,648.58l2.52.31Z"/><path class="cls-26" d="M840.08,649.86c1.87,0,3.73-.06,5.58-.13C843.81,649.8,842,649.85,840.08,649.86Z"/><path class="cls-26" d="M831.29,649.73c1.83.07,3.68.12,5.53.13C835,649.85,833.12,649.8,831.29,649.73Z"/><path class="cls-26" d="M846.09,649.71l2.67-.13Z"/><path class="cls-26" d="M848.8,649.58c.94-.05,1.87-.12,2.8-.18C850.67,649.46,849.74,649.53,848.8,649.58Z"/><path class="cls-26" d="M814.63,648.23l2,.29Z"/><path class="cls-26" d="M837.25,649.87h0Z"/><path class="cls-26" d="M805,646.25q1,.27,2,.51Q805.95,646.52,805,646.25Z"/><path class="cls-26" d="M796.27,642.72c.4.26.83.5,1.28.74C797.1,643.22,796.67,643,796.27,642.72Z"/><path class="cls-26" d="M797.84,643.61c.37.19.77.38,1.18.56C798.61,644,798.21,643.8,797.84,643.61Z"/><path class="cls-26" d="M794.18,641.08a8.73,8.73,0,0,0,.77.69A8.73,8.73,0,0,1,794.18,641.08Z"/><path class="cls-26" d="M799.34,644.31c.51.22,1,.44,1.6.65C800.38,644.75,799.85,644.53,799.34,644.31Z"/><path class="cls-26" d="M795.19,642c.32.25.65.49,1,.73C795.84,642.45,795.51,642.21,795.19,642Z"/><path class="cls-26" d="M803.08,645.69c.52.16,1,.32,1.6.47C804.13,646,803.6,645.85,803.08,645.69Z"/><path class="cls-26" d="M851.85,649.38c.81-.06,1.63-.13,2.43-.21Q853.08,649.29,851.85,649.38Z"/><path class="cls-26" d="M807.31,646.84l1.8.4Z"/><path class="cls-26" d="M801,645q.81.3,1.68.57Q801.79,645.28,801,645Z"/><path class="cls-26" d="M809.6,647.35c1.46.29,3,.56,4.55.81C812.58,647.91,811.06,647.64,809.6,647.35Z"/><path class="cls-26" d="M819.68,648.89c.82.09,1.66.18,2.5.25C821.34,649.07,820.5,649,819.68,648.89Z"/><path class="cls-26" d="M860.19,648.51c.75-.1,1.5-.2,2.23-.32C861.69,648.31,860.94,648.41,860.19,648.51Z"/><path class="cls-26" d="M792.82,639.19a7.06,7.06,0,0,0,.42.75A7.06,7.06,0,0,1,792.82,639.19Z"/><path class="cls-26" d="M792.72,639a4.74,4.74,0,0,1-.35-1.74c0,.28,0,.54.07.81A5.22,5.22,0,0,0,792.72,639Z"/><path class="cls-26" d="M793.34,640.09a6.22,6.22,0,0,0,.71.86A6.22,6.22,0,0,1,793.34,640.09Z"/><path class="cls-26" d="M854.67,649.14c1.76-.16,3.49-.36,5.16-.58C858.16,648.78,856.43,649,854.67,649.14Z"/><rect class="cls-29" x="807.54" y="557.37" width="24.51" transform="translate(26.41 1151.72) rotate(-71.05)"/><path class="cls-31" d="M807,646.76l.33.08Z"/><path class="cls-31" d="M799,644.17l.32.14Z"/><path class="cls-31" d="M809.11,647.24l.49.11Z"/><path class="cls-31" d="M796.21,642.69l.06,0Z"/><path class="cls-31" d="M794.05,641l.13.13Z"/><path class="cls-31" d="M795,641.77l.24.19Z"/><path class="cls-31" d="M800.94,645l0,0Z"/><path class="cls-31" d="M814.15,648.16l.48.07Z"/><path class="cls-31" d="M797.55,643.46l.29.15Z"/><path class="cls-31" d="M802.66,645.55l.42.14Z"/><path class="cls-31" d="M804.68,646.16l.29.09Z"/><path class="cls-31" d="M792.72,639l.1.22Z"/><path class="cls-31" d="M836.82,649.86h0Z"/><path class="cls-31" d="M839.71,649.86h0Z"/><path class="cls-31" d="M862.42,648.19l.26,0Z"/><path class="cls-31" d="M830.79,649.71l.5,0Z"/><path class="cls-31" d="M828.06,649.58l.3,0Z"/><path class="cls-31" d="M848.76,649.58h0Z"/><path class="cls-31" d="M859.83,648.56l.36,0Z"/><path class="cls-31" d="M854.28,649.17l.39,0Z"/><path class="cls-31" d="M845.66,649.73l.43,0Z"/><path class="cls-31" d="M838.4,527.27h0a16.37,16.37,0,0,0-3.33.34A16.37,16.37,0,0,1,838.4,527.27Z"/><path class="cls-31" d="M819.64,648.89h0Z"/><path class="cls-31" d="M793.24,639.94l.1.15Z"/><path class="cls-31" d="M816.65,648.52l.47.06Z"/><path class="cls-31" d="M822.18,649.14l.53.05Z"/><path class="cls-31" d="M851.6,649.4l.25,0Z"/><path class="cls-31" d="M825.07,649.39l.26,0Z"/><path class="cls-26" d="M830,534.73c-.35,1.13-1.71,5.73-3.62,12.27a11.5,11.5,0,0,1-2.64-1.22l4.68-13.65a5.82,5.82,0,0,1,3.29-3.52,18.33,18.33,0,0,1,3.33-1,16.37,16.37,0,0,1,3.33-.34C835,527.27,831.66,529.49,830,534.73Z"/><path class="cls-31" d="M830,534.73c-.35,1.13-1.71,5.73-3.62,12.27a11.5,11.5,0,0,1-2.64-1.22l4.68-13.65a5.82,5.82,0,0,1,3.29-3.52,18.33,18.33,0,0,1,3.33-1,16.37,16.37,0,0,1,3.33-.34C835,527.27,831.66,529.49,830,534.73Z"/><path class="cls-31" d="M815.81,569a10.51,10.51,0,0,0,3.63,1.95c-2.32,8-4.73,16.27-7,23.92-2.24-.82-3.87-1.77-4.58-2.85l-7.83,22.8c.51,1.55,2.51,2.89,5.51,4-.8,2.83-1.34,4.73-1.48,5.3-1.08,4.34-5.27,13.85,7.77,19,24.46,9.68,73.79.83,72.24-6.76h0l.31.89c0,4.46-6.44,7.73-15.92,9.83-1.72.36-3,.57-3.34.67l-.2,0-2.1.35-.87.13-1.48.22-.82.11c-1.59.2-3.22.39-4.89.54l-.92.09-1.49.12-1,.08c-.76.06-1.54.11-2.31.15l-1,.06-1.54.07-1,0c-1.73.07-3.47.11-5.22.13h-3.6c-1.74,0-3.46-.06-5.18-.12l-1.11,0-1.36-.06-1.2-.06-2.24-.15-1.16-.09-1.33-.11-1.19-.11-1.4-.14-1.34-.14-1.81-.22-1.07-.15c-.43-.05-.85-.11-1.27-.18l-1-.14c-1.49-.23-2.94-.49-4.33-.78l-.82-.17-1.24-.27-.79-.19c-.61-.14-1.21-.3-1.79-.46l-.66-.18-1.18-.36-.68-.21c-.43-.14-.85-.29-1.26-.44l-.41-.14c-.52-.2-1-.4-1.48-.6l-.48-.22c-.34-.15-.67-.31-1-.47l-.44-.22c-.42-.22-.83-.45-1.2-.69l-.19-.13a10.06,10.06,0,0,1-.89-.63l-.3-.24c-.25-.2-.48-.41-.7-.62l-.18-.18a6.68,6.68,0,0,1-.69-.84,1.22,1.22,0,0,1-.12-.19,4.58,4.58,0,0,1-.4-.71,2.56,2.56,0,0,1-.11-.24,4.4,4.4,0,0,1-.27-.9v0c0-.25-.06-.5-.07-.76v0Z"/><path class="cls-29" d="M819.44,570.9a10.51,10.51,0,0,1-3.63-1.95l8-23.17a11.5,11.5,0,0,0,2.64,1.22C824.5,553.51,822,562,819.44,570.9Z"/><path class="cls-32" d="M819.44,570.9a10.51,10.51,0,0,1-3.63-1.95l8-23.17a11.5,11.5,0,0,0,2.64,1.22C824.5,553.51,822,562,819.44,570.9Z"/><path class="cls-29" d="M800.08,614.77l7.83-22.8c.71,1.08,2.34,2,4.58,2.85-2.86,9.9-5.38,18.63-6.9,24C802.59,617.66,800.59,616.32,800.08,614.77Z"/><path class="cls-32" d="M800.08,614.77l7.83-22.8c.71,1.08,2.34,2,4.58,2.85-2.86,9.9-5.38,18.63-6.9,24C802.59,617.66,800.59,616.32,800.08,614.77Z"/><path class="cls-33" d="M784.53,642.26c1.69-4.82,4.61-10.48,9.71-10.48l-1.87,5.45c0,6.88,23,12.64,46,12.64s46-5.76,46-12.64l-1.87-5.45c5.1,0,8,5.66,9.71,10.48s-1.29,8.06-4.61,10.32c-6,4.1-20.56,9.14-49.26,9.14s-43.25-5-49.26-9.14C785.82,650.32,782.84,647.09,784.53,642.26Z"/><path class="cls-34" d="M784.53,642.26c.14-.4.3-.81.46-1.23-1.47,4.79,6.34,17.53,53.49,17.53,48.9,0,54.13-14.95,53.13-18,.24.58.46,1.16.66,1.73,1.68,4.83-1.29,8.06-4.61,10.32-6,4.1-20.56,9.14-49.26,9.14s-43.25-5-49.26-9.14C785.82,650.32,782.84,647.09,784.53,642.26Z"/><path class="cls-35" d="M794.24,631.78l-1.87,5.45c0,6.88,23,12.64,46,12.64h0v11.85h0c-28.71,0-43.25-5-49.26-9.14-3.32-2.26-6.3-5.49-4.61-10.32S789.14,631.78,794.24,631.78Z"/><path class="cls-26" d="M116.14,596.86l-28.36-82.6a4.58,4.58,0,0,0-2.59-2.77,13.55,13.55,0,0,0-10.46,0,4.54,4.54,0,0,0-2.58,2.77l-28.37,82.6C43.78,610.11,116.14,610.11,116.14,596.86Z"/><path class="cls-27" d="M77.37,510.7a13.45,13.45,0,0,1,2.82-.25c1.61.11,3.33.59,4.06,1.63,1.24,1.77,1.9,4.65,3.85,12.1,2.88,11,13.9,55.68,19.71,79.3a67.1,67.1,0,0,1-12.06,2.42c-3.67-25.09-10.74-73.37-12-81.72-1.79-11.38-1.71-13.56-6.35-13.47Z"/><path class="cls-28" d="M90.74,604.64l1.68-.11Z"/><path class="cls-28" d="M83.7,604.93l2.57-.07Z"/><path class="cls-28" d="M103.11,603.26l.74-.13Z"/><path class="cls-29" d="M62.21,543.21,68.46,525c2,1.32,6.73,2.34,11.5,2.34s9.53-1,11.5-2.34l6.26,18.21c-2.2,2.11-10,3.54-17.76,3.54S64.41,545.31,62.21,543.21Z"/><path class="cls-29" d="M80,585.56c-14.4,0-28.77-2.24-30.11-6.35L56,561.29c2,3,13,4.86,24,4.86s22-1.82,24-4.86l6.15,17.92C108.74,583.32,94.37,585.56,80,585.56Z"/><path class="cls-30" d="M89.86,565.69c1,6.43,1.92,13,2.83,19.29a70.09,70.09,0,0,0,10.16-1.67c-1.53-6.18-3.14-12.69-4.7-19A59.52,59.52,0,0,1,89.86,565.69Z"/><path class="cls-6" d="M84.13,527.06c.61,4.13,1.66,11,2.88,19.29a42.67,42.67,0,0,0,6.4-1.16c-2-8-3.7-14.82-4.78-19A23.64,23.64,0,0,1,84.13,527.06Z"/><path class="cls-6" d="M89.84,565.66c1,6.43,1.93,13,2.84,19.29a68.88,68.88,0,0,0,10.16-1.68c-1.54-6.17-3.14-12.68-4.71-19A59,59,0,0,1,89.84,565.66Z"/><path class="cls-26" d="M67.64,606.27l1.84.15Z"/><path class="cls-26" d="M72.07,606.59l1.91.09Z"/><path class="cls-26" d="M69.69,606.44l2.15.13Z"/><path class="cls-26" d="M63.24,605.79l2,.24Z"/><path class="cls-26" d="M81.29,606.79c1.46,0,2.93,0,4.38-.1C84.22,606.75,82.75,606.78,81.29,606.79Z"/><path class="cls-26" d="M74.37,606.69c1.45.06,2.9.09,4.35.11C77.27,606.78,75.82,606.75,74.37,606.69Z"/><path class="cls-26" d="M86,606.68l2.09-.11Z"/><path class="cls-26" d="M88.14,606.57l2.2-.14Z"/><path class="cls-26" d="M61.28,605.51l1.59.23Z"/><path class="cls-26" d="M79.06,606.8h0Z"/><path class="cls-26" d="M53.69,604c.51.14,1,.28,1.58.41C54.73,604.23,54.2,604.09,53.69,604Z"/><path class="cls-26" d="M46.85,601.18c.31.2.65.39,1,.58C47.5,601.57,47.16,601.38,46.85,601.18Z"/><path class="cls-26" d="M48.08,601.88c.3.15.61.3.93.44C48.69,602.18,48.38,602,48.08,601.88Z"/><path class="cls-26" d="M45.21,599.89a8,8,0,0,0,.6.55A8,8,0,0,1,45.21,599.89Z"/><path class="cls-26" d="M49.26,602.43q.6.27,1.26.51Q49.86,602.7,49.26,602.43Z"/><path class="cls-26" d="M46,600.58a8.31,8.31,0,0,0,.81.57A8.31,8.31,0,0,1,46,600.58Z"/><path class="cls-26" d="M52.2,603.51l1.26.38Z"/><path class="cls-26" d="M90.53,606.41c.64,0,1.28-.1,1.92-.16C91.81,606.31,91.18,606.37,90.53,606.41Z"/><path class="cls-26" d="M55.53,604.42l1.41.32Z"/><path class="cls-26" d="M50.55,603c.43.16.87.31,1.32.46C51.42,603.26,51,603.11,50.55,603Z"/><path class="cls-26" d="M57.33,604.82c1.15.23,2.34.44,3.58.64C59.67,605.26,58.48,605.05,57.33,604.82Z"/><path class="cls-26" d="M65.25,606l2,.2Z"/><path class="cls-26" d="M97.09,605.74l1.75-.26Z"/><path class="cls-26" d="M44.14,598.41a4.37,4.37,0,0,0,.33.59A4.37,4.37,0,0,1,44.14,598.41Z"/><path class="cls-26" d="M44.06,598.23a3.76,3.76,0,0,1-.28-1.36c0,.21,0,.42.06.63A4.71,4.71,0,0,0,44.06,598.23Z"/><path class="cls-26" d="M44.55,599.12a4.85,4.85,0,0,0,.56.67A4.85,4.85,0,0,1,44.55,599.12Z"/><path class="cls-26" d="M92.75,606.23c1.38-.13,2.74-.28,4.06-.46C95.49,606,94.13,606.1,92.75,606.23Z"/><rect class="cls-29" x="55.71" y="534.1" width="19.26" transform="translate(-461.03 422.45) rotate(-71.05)"/><path class="cls-31" d="M55.27,604.36l.26.06Z"/><path class="cls-31" d="M49,602.32l.25.11Z"/><path class="cls-31" d="M56.94,604.74l.39.08Z"/><path class="cls-31" d="M46.81,601.15l0,0Z"/><path class="cls-31" d="M45.11,599.79a.47.47,0,0,0,.1.1A.47.47,0,0,1,45.11,599.79Z"/><path class="cls-31" d="M45.81,600.44l.19.14Z"/><path class="cls-31" d="M50.52,602.94h0Z"/><path class="cls-31" d="M60.91,605.46l.37,0Z"/><path class="cls-31" d="M47.85,601.76l.23.12Z"/><path class="cls-31" d="M51.87,603.41l.33.1Z"/><path class="cls-31" d="M53.46,603.89l.23.06Z"/><path class="cls-31" d="M44.06,598.23l.08.18Z"/><path class="cls-31" d="M78.72,606.8h0Z"/><path class="cls-31" d="M81,606.8h0Z"/><path class="cls-31" d="M98.84,605.48l.21,0Z"/><path class="cls-31" d="M74,606.68h0Z"/><path class="cls-31" d="M71.84,606.57l.23,0Z"/><path class="cls-31" d="M88.1,606.57h0Z"/><path class="cls-31" d="M96.81,605.77l.28,0Z"/><path class="cls-31" d="M92.45,606.25l.3,0Z"/><path class="cls-31" d="M85.67,606.69h0Z"/><path class="cls-31" d="M80,510.44h0a12.85,12.85,0,0,0-2.61.27A12.85,12.85,0,0,1,80,510.44Z"/><path class="cls-31" d="M65.22,606h0Z"/><path class="cls-31" d="M44.47,599l.08.12Z"/><path class="cls-31" d="M62.87,605.74l.37,0Z"/><path class="cls-31" d="M67.21,606.23l.43,0Z"/><path class="cls-31" d="M90.34,606.43l.19,0Z"/><path class="cls-31" d="M69.48,606.42l.21,0Z"/><path class="cls-26" d="M73.38,516.31c-.27.88-1.34,4.5-2.84,9.64a9.48,9.48,0,0,1-2.08-1l3.69-10.73a4.52,4.52,0,0,1,2.58-2.76,14.51,14.51,0,0,1,2.62-.79,12.85,12.85,0,0,1,2.61-.27C77.32,510.44,74.66,512.19,73.38,516.31Z"/><path class="cls-31" d="M73.38,516.31c-.27.88-1.34,4.5-2.84,9.64a9.48,9.48,0,0,1-2.08-1l3.69-10.73a4.52,4.52,0,0,1,2.58-2.76,14.51,14.51,0,0,1,2.62-.79,12.85,12.85,0,0,1,2.61-.27C77.32,510.44,74.66,512.19,73.38,516.31Z"/><path class="cls-31" d="M62.21,543.21a8.19,8.19,0,0,0,2.85,1.52c-1.82,6.26-3.72,12.8-5.46,18.81a7.42,7.42,0,0,1-3.6-2.25l-6.15,17.92c.4,1.22,2,2.28,4.33,3.16-.64,2.22-1,3.71-1.17,4.16-.85,3.41-4.14,10.89,6.11,14.94,19.22,7.61,58,.66,56.78-5.31h0l.24.69c0,3.51-5.06,6.09-12.51,7.74-1.35.27-2.34.44-2.63.52l-.15,0-1.66.28-.67.1-1.17.17-.64.08c-1.25.17-2.54.31-3.85.43l-.73.07-1.16.1-.83.06-1.82.12-.8,0-1.21.06-.79,0c-1.36,0-2.73.09-4.1.1H78.58c-1.36,0-2.72,0-4.06-.09l-.88,0-1.06,0-1-.05-1.76-.11-.91-.07-1-.09-.94-.08-1.1-.11L64.82,606l-1.41-.17-.85-.11-1-.15-.75-.11c-1.18-.18-2.32-.39-3.41-.61l-.64-.13-1-.22-.62-.14-1.4-.37-.52-.14-.93-.28-.53-.17-1-.34-.33-.12c-.4-.15-.79-.31-1.16-.47l-.38-.17-.77-.37-.34-.17-1-.54-.15-.1c-.24-.17-.48-.33-.69-.5a2.23,2.23,0,0,1-.24-.19,6.6,6.6,0,0,1-.55-.49,1.85,1.85,0,0,1-.14-.14,4.81,4.81,0,0,1-.55-.66l-.09-.14a4,4,0,0,1-.31-.57l-.09-.18a3.82,3.82,0,0,1-.21-.71v0c0-.2-.05-.4-.05-.6v0Z"/><path class="cls-29" d="M65.06,544.73a8.19,8.19,0,0,1-2.85-1.52L68.46,525a9.48,9.48,0,0,0,2.08,1C69,531.07,67.1,537.72,65.06,544.73Z"/><path class="cls-32" d="M65.06,544.73a8.19,8.19,0,0,1-2.85-1.52L68.46,525a9.48,9.48,0,0,0,2.08,1C69,531.07,67.1,537.72,65.06,544.73Z"/><path class="cls-29" d="M49.85,579.21,56,561.29a7.42,7.42,0,0,0,3.6,2.25c-2.25,7.77-4.23,14.63-5.42,18.83C51.82,581.49,50.25,580.43,49.85,579.21Z"/><path class="cls-32" d="M49.85,579.21,56,561.29a7.42,7.42,0,0,0,3.6,2.25c-2.25,7.77-4.23,14.63-5.42,18.83C51.82,581.49,50.25,580.43,49.85,579.21Z"/><path class="cls-33" d="M37.62,600.82c1.33-3.79,3.63-8.24,7.64-8.24l-1.48,4.29c0,5.4,18.09,9.93,36.18,9.93s36.18-4.53,36.18-9.93l-1.47-4.29c4,0,6.3,4.45,7.63,8.24s-1,6.33-3.62,8.11c-4.73,3.23-16.16,7.19-38.72,7.19s-34-4-38.71-7.19C38.64,607.15,36.3,604.61,37.62,600.82Z"/><path class="cls-34" d="M37.62,600.82l.36-1c-1.15,3.76,5,13.77,42,13.77,38.44,0,42.55-11.75,41.77-14.17.18.46.35.91.51,1.36,1.33,3.79-1,6.33-3.62,8.11-4.73,3.23-16.16,7.19-38.72,7.19s-34-4-38.71-7.19C38.64,607.15,36.3,604.61,37.62,600.82Z"/><path class="cls-35" d="M45.26,592.58l-1.48,4.29c0,5.4,18.09,9.93,36.18,9.93h0v9.32h0c-22.56,0-34-4-38.71-7.19-2.61-1.78-5-4.32-3.63-8.11S41.25,592.58,45.26,592.58Z"/><polygon class="cls-36" points="592.83 813.04 607.43 813.04 589.06 633.29 574.46 633.29 592.83 813.04"/><polygon class="cls-37" points="570.55 813.04 555.96 813.04 574.33 633.29 588.92 633.29 570.55 813.04"/><polygon class="cls-38" points="584.4 684.45 569.86 684.45 570.55 677.87 585.1 677.87 584.4 684.45"/><polygon class="cls-38" points="578.06 746.93 563.52 746.93 564.21 740.35 578.75 740.35 578.06 746.93"/><polygon class="cls-36" points="726.28 813.04 711.69 813.04 730.06 633.29 744.65 633.29 726.28 813.04"/><polygon class="cls-37" points="748.42 813.04 763.01 813.04 744.64 633.29 730.05 633.29 748.42 813.04"/><polygon class="cls-38" points="735.36 684.45 749.9 684.45 749.21 677.87 734.66 677.87 735.36 684.45"/><polygon class="cls-38" points="741.7 746.93 756.24 746.93 755.55 740.35 741.01 740.35 741.7 746.93"/><rect class="cls-26" x="549.53" y="643.52" width="220.62" height="34.35"/><polygon class="cls-31" points="554.14 673.26 554.14 643.52 549.53 643.52 549.53 673.26 549.53 677.87 554.14 677.87 770.15 677.87 770.15 673.26 554.14 673.26"/><path class="cls-29" d="M549.53,643.52v18.05l18.05-18.05Zm94.77,0L610,677.87h18l34.35-34.35Zm-47.38,0-34.35,34.35h18L615,643.52Zm94.77,0-34.35,34.35h18l34.35-34.35Zm60.42,34.35h18v-18Zm-13-34.35-34.35,34.35h18l34.36-34.35Z"/><polygon class="cls-39" points="567.18 673.26 562.57 677.87 580.61 677.87 585.23 673.26 567.18 673.26"/><polygon class="cls-39" points="614.56 673.26 609.95 677.87 628 677.87 632.61 673.26 614.56 673.26"/><polygon class="cls-39" points="554.14 643.52 549.53 643.52 549.53 661.57 554.14 656.96 554.14 643.52"/><polygon class="cls-39" points="661.95 673.26 657.34 677.87 675.39 677.87 680 673.26 661.95 673.26"/><polygon class="cls-39" points="709.34 673.26 704.73 677.87 722.77 677.87 727.38 673.26 709.34 673.26"/><polygon class="cls-39" points="752.11 677.87 770.15 677.87 770.15 673.26 756.72 673.26 752.11 677.87"/><polygon class="cls-27" points="549.53 643.52 770.15 643.52 770.15 677.87 766.61 647.18 549.53 643.52"/><polygon class="cls-30" points="707.08 646.18 709.74 643.52 691.69 643.52 689.33 645.88 707.08 646.18"/><polygon class="cls-30" points="660.48 645.39 662.35 643.52 644.3 643.52 642.73 645.09 660.48 645.39"/><polygon class="cls-30" points="753.68 646.96 757.13 643.52 739.08 643.52 735.93 646.66 753.68 646.96"/><polygon class="cls-30" points="768.29 661.7 770.15 677.87 770.15 659.83 768.29 661.7"/><polygon class="cls-30" points="613.88 644.61 614.97 643.52 596.92 643.52 596.13 644.3 613.88 644.61"/><polygon class="cls-30" points="567.58 643.52 549.53 643.52 567.28 643.82 567.58 643.52"/><rect class="cls-26" x="549.53" y="706" width="220.62" height="34.35"/><polygon class="cls-31" points="554.14 735.74 554.14 706 549.53 706 549.53 735.74 549.53 740.35 554.14 740.35 770.15 740.35 770.15 735.74 554.14 735.74"/><path class="cls-29" d="M549.53,706v18l18.05-18Zm94.77,0L610,740.35h18L662.35,706Zm-47.38,0-34.35,34.35h18L615,706Zm94.77,0-34.35,34.35h18L709.74,706Zm60.42,34.35h18v-18Zm-13-34.35-34.35,34.35h18L757.13,706Z"/><polygon class="cls-39" points="567.18 735.74 562.57 740.35 580.61 740.35 585.23 735.74 567.18 735.74"/><polygon class="cls-39" points="614.56 735.74 609.95 740.35 628 740.35 632.61 735.74 614.56 735.74"/><polygon class="cls-39" points="554.14 706 549.53 706 549.53 724.05 554.14 719.44 554.14 706"/><polygon class="cls-39" points="661.95 735.74 657.34 740.35 675.39 740.35 680 735.74 661.95 735.74"/><polygon class="cls-39" points="709.34 735.74 704.73 740.35 722.77 740.35 727.38 735.74 709.34 735.74"/><polygon class="cls-39" points="752.11 740.35 770.15 740.35 770.15 735.74 756.72 735.74 752.11 740.35"/><polygon class="cls-27" points="549.53 706 770.15 706 770.15 740.35 766.61 709.66 549.53 706"/><polygon class="cls-30" points="707.08 708.66 709.74 706 691.69 706 689.33 708.36 707.08 708.66"/><polygon class="cls-30" points="660.48 707.87 662.35 706 644.3 706 642.73 707.57 660.48 707.87"/><polygon class="cls-30" points="753.68 709.44 757.13 706 739.08 706 735.93 709.14 753.68 709.44"/><polygon class="cls-30" points="768.29 724.18 770.15 740.35 770.15 722.31 768.29 724.18"/><polygon class="cls-30" points="613.88 707.09 614.97 706 596.92 706 596.13 706.79 613.88 707.09"/><polygon class="cls-30" points="567.58 706 549.53 706 567.28 706.3 567.58 706"/><path class="cls-40" d="M249.57,545.89c1.47,1.43,3.82,10.65-.83,19.19-4.78,8.77-12.07,21.56-12.07,21.56l15.66,12.64c1.2,1,8.82-.8,8.67.14-.31,2-4.59,3.41-4.59,3.41l4.59,2.11s-3.62,5.41-8.55,5.66c0,0-23.22-17.36-24.18-19.16-1.26-2.36-1.88-4.57-.18-7.58C230.37,579.85,244.29,548,249.57,545.89Z"/><path class="cls-41" d="M243.68,574.23s-6.72.07-8.42-5.16l.86-1.75,8.86,4.57Z"/><path class="cls-42" d="M251.48,545.52c-.63-.59-4.16.17-6.44,3.49s-9.5,16.41-9.5,16.41.77,7.17,10.43,6.94c0,0,4.35-7.39,5.9-12.14S253.59,548.1,251.48,545.52Z"/><path class="cls-43" d="M225.37,727.88v8.43h26.57c6.47,0,10.78-.89,3.53-3.41s-18.5-5-18.5-5Z"/><path class="cls-43" d="M240.81,601.55a163.32,163.32,0,0,0-.87,25.51l-.28,40.41-14.29,60.41H237l20.77-57.17,7.18-65.89Z"/><path class="cls-44" d="M244,602s0,14.75,6.08,28.57l7.63,40.15,7.18-65.89Z"/><path class="cls-45" d="M275.8,605.56s4.27,53.35,3.82,55.62-3.1,66.7-3.1,66.7h-11.6l-2.58-59.21L253.79,629c-7.32-10.5-9.75-26.19-9.75-26.19Z"/><path class="cls-45" d="M264.92,727.88v8.43h26.57c6.46,0,10.77-.89,3.53-3.41s-18.5-5-18.5-5Z"/><path class="cls-40" d="M290.51,589c2.17-2.87,2.65-10.09-1.16-21.15s-7.61-25.71-8.72-27.66-5.8-7.76-7.11-8.57-3.51,6.56-3.35,9,3.23,7.09,5.66,6.77l5.34,30.19Z"/><path class="cls-41" d="M270.17,540.63a9.38,9.38,0,0,0,2,4.51c4.67-.6,5.84-5.28,6.12-8.26a52.22,52.22,0,0,0-4.8-5.3C272.21,530.76,270,538.14,270.17,540.63Z"/><path class="cls-41" d="M279.62,568.31l1.55,9.28,6.45,2.18a109.2,109.2,0,0,0-4-11.13c-1.78-4.26-7.79-21.24-7.79-21.24Z"/><path class="cls-40" d="M255.82,534.26s-1.18,10-1.91,13.07c-.41,1.76-1.29,6.41-2.73,7.57,0,0,6.8,9.64,17.47,7s2.87-8.86,2.87-8.86l-5.82-4.8,1.42-9.13S267.13,531.45,255.82,534.26Z"/><path class="cls-41" d="M255.46,537.19l.36-2.93c11.31-2.81,11.3,4.83,11.3,4.83l-.38,2.45C258.81,541.93,255.5,537.25,255.46,537.19Z"/><path class="cls-46" d="M254.38,544.81c-3.19-.64-10.9,3.18-10.9,10.86,0,8,.87,16.11-.24,24.1-.89,6.42-2.8,15.9-3.12,24.25,0,0,3.2,3.26,15.87,4.46s20.58-2.62,20.58-2.62-.76-17.58.1-29.33c1-13.4.69-19.47-4.31-24.17a19.22,19.22,0,0,0-6.66-4.14C256.41,550.41,254.38,544.81,254.38,544.81Z"/><path class="cls-40" d="M261.65,507.46c6.24-.84,11.83.23,14,7.93s2.15,14.56,1.48,18.3a9,9,0,0,1-4.88,6.18c-3.8,1.37-15.91.67-19-9.81C249.64,518.14,250.1,509.36,261.65,507.46Z"/><path class="cls-47" d="M251.33,521.2c1-.13,3.31,1.94,3.55,3.76a1.21,1.21,0,1,0,2.39-.32c-.23-1.78-.87-6.51-.87-6.51a11.77,11.77,0,0,0,4-6.27,16,16,0,0,0,12.11-2.07c5.87-3.82,6.34-7.68,5.51-9.42s-2.88,1.31-6.93,2.47a74.33,74.33,0,0,1-15.58,2.5c-4.2.05-5.64,5-5.64,5s-2.33.47-3.09,2-.29,10.91,4.5,19.07a55.2,55.2,0,0,1,4.31,8.37l.55-4.41a13,13,0,0,1-2.44-3.93Z"/><path class="cls-40" d="M254.88,525s-1-4.43-4.41-3.7-3.65,3.92-2.55,6.69c.8,2,4.47,5.09,7.19,2.81Z"/><path class="cls-41" d="M248.88,524.92a2,2,0,0,1,2.29-2.08,3.11,3.11,0,0,1,2.13,3.36,1.26,1.26,0,0,0-1.63.5,1.28,1.28,0,0,0,1.31,1.88,1,1,0,0,1-.53,1C251.86,529.86,248.59,528.42,248.88,524.92Z"/><path class="cls-48" d="M268.58,608.08c-17.81-2.9-23-14.1-23-14.1-.85-4.16,5.62,2.24,12.43.13,3-.81-5.55-5.48-9.2-12.81-2.66-5.33-4.62-8.92-5-11.56,0,.22,0,.5,0,.74v.42c0,.74,0,1.51,0,2.34,0,.35,0,.7,0,1s-.05.76-.07,1.15c0,.6-.08,1.21-.13,1.81-.08.88-.17,1.71-.27,2.45,0,0,0,0,0,.07-.56,4-1.51,9.22-2.23,14.6-.43,3.23-.77,6.52-.89,9.65,0,0,3.2,3.26,15.87,4.46A49.07,49.07,0,0,0,268.58,608.08Z"/><path class="cls-47" d="M274.32,513.76s3.59-1.16,4.9-3.57.75-4.87.29-5.08-3.33,2.82-8.13,2.18C271.38,507.29,267.54,511.57,274.32,513.76Z"/><path class="cls-40" d="M262.68,558.06c2-.61,11.52,1.81,16.94,10.25,5.56,8.65,7.91,10.32,10.68,16.29,2.62,5.64-3.7,10-9.93,2.28C275.2,580.48,262,563.87,262.68,558.06Z"/><path class="cls-42" d="M263.28,556.15c-.84.28-1.89,3.85,0,7.55s10.15,16.71,10.15,16.71,6.86,2.85,11.43-6c0,0-4.64-7.55-7.59-11.76C274,558,267.48,552.05,263.28,556.15Z"/><path class="cls-40" d="M473.61,616.43c-1.46,1.42-3.82,10.65.83,19.19,4.78,8.76,12.08,21.55,12.08,21.55l-15.67,12.64c-1.2,1-8.82-.79-8.67.15.31,2,4.59,3.41,4.59,3.41l-4.59,2.1s3.62,5.41,8.55,5.66c0,0,23.23-17.35,24.18-19.15,1.26-2.37,1.88-4.57.18-7.58C492.82,650.38,478.89,618.51,473.61,616.43Z"/><path class="cls-41" d="M479.51,644.76s6.72.07,8.42-5.15l-.87-1.75-8.86,4.57Z"/><path class="cls-42" d="M471.7,616.05c.63-.58,4.16.18,6.45,3.49S487.64,636,487.64,636s-.77,7.17-10.43,6.93c0,0-4.34-7.39-5.89-12.14S469.6,618.63,471.7,616.05Z"/><path class="cls-43" d="M514.08,776.72,517.8,784l-23,11.72c-5.59,2.85-9.7,4-4.55-1.4s13.78-12.5,13.78-12.5Z"/><path class="cls-43" d="M481.05,666s8.26,10.47,1.21,25.43l1.53,33.76,30.29,51.55-10,5.11-35.25-47.37-11.23-63.94Z"/><path class="cls-44" d="M480.83,667.7s6.89,13.43-6.43,28l-5.59,38.8-11.23-63.94Z"/><path class="cls-45" d="M447,671.24s-4.14,51.76-3.7,54S439,789.93,439,789.93h11.25l9.8-57.46,10.22-36.53c15.52-13.44,10.52-28.24,10.52-28.24Z"/><path class="cls-45" d="M450.29,789.93v8.19H424.51c-6.28,0-10.46-.86-3.42-3.31s18-4.88,18-4.88Z"/><path class="cls-47" d="M459.52,580.48a9,9,0,0,0-9.24-1.82c-5.39,2-8.88,13.54-.47,19.18Z"/><path class="cls-40" d="M470.2,605.72A105.74,105.74,0,0,0,474.09,616c.85,1.66,2.89,6.08,4.62,6.88,0,0-4.4,11.34-15.73,11.34s-8.79-7.43-8.79-7.43l8.34-7s-2.93-9.09-3-8.2C459.48,611.61,458.19,605.72,470.2,605.72Z"/><path class="cls-41" d="M470.2,605.72l1.41,4.12s-3.66,6.37-10.51,5.7l-1.62-3.93a7.1,7.1,0,0,1,4.09-4.88C468.25,604.73,470.2,605.72,470.2,605.72Z"/><path class="cls-40" d="M461.3,583.43c-5.94-.56-9.05,1.57-10.58,6.49-1.71,7.38-2,14.16-1.21,17.68a8.56,8.56,0,0,0,4.86,5.66c3.65,1.16,15.09,0,17.64-10C474.9,591.82,472.31,584.79,461.3,583.43Z"/><path class="cls-46" d="M474.09,616c3.29-.66,6,1.9,7.73,7.14s1.59,9.51,0,13.51-6.43,12.87-7.26,14.3,7.37,16.18,7.37,16.18-8,7.28-16.73,9S446.92,672,446.92,672s.26-10,.86-21,2.23-28,8.93-30.22S474.09,616,474.09,616Z"/><path class="cls-48" d="M469.17,662.46c-1.7-5.29-8.65-4.86-6.16-7.93s8.3-6,8.95-9.19-1.29-5.44-5.63-10.3-2.39-16.44-2.39-16.44c5.24-1.44,10.15-2.61,10.15-2.61,3.29-.66,6,1.9,7.73,7.14s1.59,9.51,0,13.51-6.43,12.87-7.26,14.3,7.38,16.18,7.38,16.18-8,7.28-16.74,9a22.65,22.65,0,0,1-10.84-.91C467.39,677.7,470.88,667.75,469.17,662.46Z"/><path class="cls-47" d="M470.68,606.24l.16-8.22s-.8,4.21-2,4.41-3.2-.63-2.85-1.66,1.71-5.56,1.71-5.56-13.13-.65-13-12.68c0,0,7.3-5,13.2-3s10.55,8.91,7.13,19.86Z"/><path class="cls-47" d="M485,589.85a18.44,18.44,0,0,0,5,8.94c2,1.88,5.14,2.54,7.26,4.39a9.88,9.88,0,0,1,3.33,7.23,10.44,10.44,0,0,1-2.43,6.52c-1.26,1.66-3.36,3.05-3.65,5.26a14.48,14.48,0,0,0,.07,2.28c.27,6.22-6.07,11-11.89,10.53a12.68,12.68,0,0,1-8.71-4.68c-2.53-3.18-3.37-7.37-3.89-11.41a31.81,31.81,0,0,1-.38-6.82,40.7,40.7,0,0,1,1.05-5.85c1.1-4.18,2-7.76,1-12-.91-3.7-15.11-10.82-13.4-14.73,5.63-5.12,13.74-4.45,17.85-2.39C481.78,580,483.7,583.46,485,589.85Z"/><path class="cls-40" d="M469.94,599.85s1.22-4.24,4.52-3.3,3.23,4.08,2,6.7c-.92,1.91-4.62,4.61-7.12,2.22Z"/><path class="cls-41" d="M475.5,600.15a2,2,0,0,0-2.15-2.11,3,3,0,0,0-2.2,3.19,1.22,1.22,0,1,1,.23,2.32,1,1,0,0,0,.47,1C472.42,604.85,475.65,603.57,475.5,600.15Z"/><path class="cls-40" d="M433.16,667.16c2.67-.27,4.85-1,6.42-4,2.08-4.11,20.94-33.33,19.76-38.89-2-.43-10,1.68-14.58,10.28-4.66,8.83-12.31,22.42-12.31,22.42L406.89,659c-2.16-.38-4.36-6.62-5.06-6-1.46,1.34.08,5.6.08,5.61a9.5,9.5,0,0,1-2.19.16,10,10,0,0,1-3.43-1.59,10,10,0,0,0-1.72-1,2.23,2.23,0,0,0-1.94.06c-1.7,1.06-1.24,4.75-.54,6.23,3.52,7.49,15.32,5.09,22,5,5.8-.07,11.6-.1,17.39-.26C432,667.21,432.6,667.21,433.16,667.16Z"/><path class="cls-41" d="M447.91,649s-5.19,1-8.63-4.38l.85-1.55,9.09,3.67Z"/><path class="cls-42" d="M458.6,622.42c.83.2,2.15,3.57.65,7.3s-8.43,17-8.43,17-6.4,3.33-11.54-4.85c0,0,3.73-6.58,6.23-10.9C448.14,626.38,453.32,619.19,458.6,622.42Z"/><rect class="cls-49" x="145.6" y="273.72" width="11.87" height="364.37"/><path class="cls-49" d="M75.38,266.84l70.53-122.16a6.5,6.5,0,0,1,11.26,0L227.7,266.84a6.5,6.5,0,0,1-5.63,9.75H81A6.5,6.5,0,0,1,75.38,266.84Z"/><line class="cls-6" x1="152.39" y1="223.55" x2="146.62" y2="229.32"/><path class="cls-6" d="M171,209.28l3.51-3.52,9.61,2.58a10.28,10.28,0,0,0-20.39,2.49,3,3,0,0,1-.88,2.29L157.91,218l-3.59,3.55L161,228l2.76-2.72,4.52-4.52a3.1,3.1,0,0,1,3-.77,10.22,10.22,0,0,0,9.95-2.64,9.67,9.67,0,0,0,.69-.76L172.27,214Z"/><line class="cls-6" x1="153.06" y1="236.01" x2="159.07" y2="230"/><path class="cls-6" d="M144.75,231.22l-2.52,2.57-4.52,4.52a3.09,3.09,0,0,1-3,.77,10.26,10.26,0,0,0-10,2.64,9.67,9.67,0,0,0-.69.76l9.65,2.59,1.31,4.74-3.52,3.52-9.6-2.57a10.28,10.28,0,0,0,20.38-2.49,3,3,0,0,1,.88-2.3l5.62-5.62,2.4-2.44Z"/><path class="cls-6" d="M182.83,252.89l-43.67-42.07a.65.65,0,0,0,0-.91l-4-4a1.59,1.59,0,0,1,0-2.25,7,7,0,0,1,9.85,0l.71.7a1.33,1.33,0,0,0,0-1.88l-1.11-1.11a10.47,10.47,0,0,0-14.79,0l-5.34,5.34h0l-.45.45-.32.32h0l-.33.33c1.14,1.14-.17,3.61-1.6,5s-1.93,1.31-2.59,1a.61.61,0,0,0-.85,0l0,0-.32.31,0,0-1.36,1.36-.12.12a1,1,0,0,0,0,1.36l.12.12h0l5,5a1.14,1.14,0,0,0,1.58,0l-.05,0,.06,0,1.36-1.37.34-.33a.67.67,0,0,0,0-.93h0c-.23-.66,1.16-2.46,3-3.69a4,4,0,0,1,4-.21h0l.77.77a.68.68,0,0,0,1,0l.29-.29L176,259.77a1.59,1.59,0,0,0,2.27,0l4.63-4.63A1.59,1.59,0,0,0,182.83,252.89Z"/><path class="cls-49" d="M317.26,112.67V93.77l-17.37-1.91a44.82,44.82,0,0,0-4.7-11.3l10.95-13.64L292.77,53.55l-13.64,11a44.13,44.13,0,0,0-11.3-4.69l-1.9-17.38H247l-1.9,17.38a44.13,44.13,0,0,0-11.3,4.69l-13.64-11L206.81,66.92l10.95,13.64a44.82,44.82,0,0,0-4.7,11.3l-17.37,1.91v18.9l17.37,1.9a44.52,44.52,0,0,0,4.7,11.3l-10.95,13.64,13.37,13.37,13.64-10.94a44.49,44.49,0,0,0,11.3,4.69L247,164h18.91l1.9-17.37a44.49,44.49,0,0,0,11.3-4.69l13.64,10.94,13.37-13.37-10.95-13.64a44.52,44.52,0,0,0,4.7-11.3ZM256.47,132.4a29.18,29.18,0,1,1,29.18-29.18A29.18,29.18,0,0,1,256.47,132.4Z"/><path class="cls-49" d="M377.05,193.29l-2.52-13.92-13,.91a33.08,33.08,0,0,0-5-7.69l6.24-11.5L351.15,153l-8.58,9.88a32.82,32.82,0,0,0-8.94-1.95l-3.72-12.54L316,150.94l.91,13a33.19,33.19,0,0,0-7.69,5l-11.5-6.24-8.06,11.62,9.87,8.58a33.67,33.67,0,0,0-1.95,8.94l-12.53,3.72,2.51,13.91,13.05-.91a33,33,0,0,0,4.95,7.69l-6.24,11.5,11.62,8.06,8.59-9.87a33.5,33.5,0,0,0,8.94,1.95l3.71,12.53,13.92-2.51-.91-13a33.74,33.74,0,0,0,7.69-5l11.5,6.24,8.06-11.62-9.87-8.59a33.5,33.5,0,0,0,1.95-8.94ZM334.93,215.9a21.82,21.82,0,1,1,17.6-25.36A21.82,21.82,0,0,1,334.93,215.9Z"/><path class="cls-26" d="M170.72,701.17,127,573.9a7,7,0,0,0-4-4.26,20.93,20.93,0,0,0-16.11,0,7.06,7.06,0,0,0-4,4.26L59.25,701.17C59.25,721.58,170.72,721.58,170.72,701.17Z"/><path class="cls-27" d="M111,568.42a21.23,21.23,0,0,1,4.34-.38c2.49.17,5.13.9,6.26,2.51,1.91,2.72,2.93,7.16,5.94,18.64,4.43,16.92,21.4,85.77,30.36,122.18a105.23,105.23,0,0,1-18.58,3.73c-5.65-38.66-16.54-113-18.57-125.91-2.76-17.54-2.64-20.9-9.78-20.76Z"/><path class="cls-28" d="M131.59,713.15q1.31-.07,2.58-.18Q132.89,713.08,131.59,713.15Z"/><path class="cls-28" d="M120.74,713.6l4-.11Z"/><path class="cls-28" d="M150.64,711l1.15-.21Z"/><path class="cls-29" d="M87.63,618.5l9.64-28.07c3,2,10.37,3.62,17.71,3.62s14.69-1.59,17.72-3.62l9.64,28.07C139,621.75,127,624,115,624S91,621.75,87.63,618.5Z"/><path class="cls-29" d="M115,683.76c-22.18,0-44.32-3.45-46.39-9.79l9.48-27.61c3.08,4.68,20,7.49,36.91,7.49s33.85-2.81,36.92-7.49L161.38,674C159.32,680.31,137.18,683.76,115,683.76Z"/><path class="cls-30" d="M130.23,653.14c1.47,9.91,3,20.05,4.36,29.72a106.44,106.44,0,0,0,15.66-2.58c-2.36-9.51-4.83-19.55-7.25-29.35A89.35,89.35,0,0,1,130.23,653.14Z"/><path class="cls-6" d="M121.41,593.63c.94,6.36,2.55,17,4.44,29.71a63.8,63.8,0,0,0,9.85-1.78c-3.07-12.38-5.7-22.83-7.36-29.27A37.71,37.71,0,0,1,121.41,593.63Z"/><path class="cls-6" d="M130.21,653.09c1.47,9.91,3,20,4.36,29.72a106.44,106.44,0,0,0,15.66-2.58c-2.37-9.51-4.83-19.54-7.25-29.34A90.87,90.87,0,0,1,130.21,653.09Z"/><path class="cls-26" d="M96,715.66l2.85.23Z"/><path class="cls-26" d="M102.83,716.15l2.94.14Z"/><path class="cls-26" d="M99.16,715.92c1.09.08,2.2.15,3.3.21C101.36,716.07,100.25,716,99.16,715.92Z"/><path class="cls-26" d="M89.22,714.92l3,.37Z"/><path class="cls-26" d="M117,716.47c2.26,0,4.51-.08,6.75-.16C121.54,716.39,119.29,716.45,117,716.47Z"/><path class="cls-26" d="M106.38,716.31q3.33.13,6.69.16Q109.71,716.44,106.38,716.31Z"/><path class="cls-26" d="M124.3,716.29l3.23-.16Z"/><path class="cls-26" d="M127.59,716.13c1.13-.07,2.26-.14,3.38-.23C129.85,716,128.72,716.06,127.59,716.13Z"/><path class="cls-26" d="M86.21,714.5l2.44.34Z"/><path class="cls-26" d="M113.59,716.47h0Z"/><path class="cls-26" d="M74.51,712.09c.78.22,1.6.43,2.43.63C76.11,712.52,75.29,712.31,74.51,712.09Z"/><path class="cls-26" d="M64,707.83c.48.3,1,.6,1.55.88C65,708.43,64.45,708.13,64,707.83Z"/><path class="cls-26" d="M65.87,708.89c.46.24.93.46,1.43.69C66.8,709.35,66.33,709.13,65.87,708.89Z"/><path class="cls-26" d="M61.44,705.83a11,11,0,0,0,.94.84A11,11,0,0,1,61.44,705.83Z"/><path class="cls-26" d="M67.68,709.75c.62.27,1.27.53,1.94.78C69,710.28,68.3,710,67.68,709.75Z"/><path class="cls-26" d="M62.66,706.9c.39.3.8.59,1.24.88C63.46,707.49,63.05,707.2,62.66,706.9Z"/><path class="cls-26" d="M72.22,711.42l1.93.57Z"/><path class="cls-26" d="M131.27,715.88c1-.07,2-.16,2.95-.24C133.24,715.72,132.26,715.81,131.27,715.88Z"/><path class="cls-26" d="M77.34,712.81c.71.17,1.44.33,2.18.49C78.78,713.14,78.05,713,77.34,712.81Z"/><path class="cls-26" d="M69.68,710.55c.65.24,1.33.48,2,.7C71,711,70.33,710.79,69.68,710.55Z"/><path class="cls-26" d="M80.12,713.42q2.64.54,5.51,1Q82.77,714,80.12,713.42Z"/><path class="cls-26" d="M92.32,715.29l3,.31Z"/><path class="cls-26" d="M141.37,714.84c.91-.13,1.81-.25,2.7-.39C143.18,714.59,142.28,714.71,141.37,714.84Z"/><path class="cls-26" d="M59.8,703.54a5.85,5.85,0,0,0,.51.91A5.85,5.85,0,0,1,59.8,703.54Z"/><path class="cls-26" d="M59.68,703.28a5.68,5.68,0,0,1-.43-2.11c0,.34.06.65.09,1A5.65,5.65,0,0,0,59.68,703.28Z"/><path class="cls-26" d="M60.42,704.64a10.07,10.07,0,0,0,.86,1A10.07,10.07,0,0,1,60.42,704.64Z"/><path class="cls-26" d="M134.68,715.59q3.21-.3,6.26-.7Q137.89,715.3,134.68,715.59Z"/><rect class="cls-29" x="77.61" y="604.47" width="29.67" transform="translate(-509.28 495.61) rotate(-71.05)"/><path class="cls-31" d="M76.94,712.72l.4.09Z"/><path class="cls-31" d="M67.3,709.58l.38.17Z"/><path class="cls-31" d="M79.52,713.3l.6.12Z"/><path class="cls-31" d="M63.9,707.78a.18.18,0,0,1,.07.05A.18.18,0,0,0,63.9,707.78Z"/><path class="cls-31" d="M61.28,705.68l.16.15Z"/><path class="cls-31" d="M62.38,706.67a3.11,3.11,0,0,0,.28.23A3.11,3.11,0,0,1,62.38,706.67Z"/><path class="cls-31" d="M69.62,710.53l.06,0Z"/><path class="cls-31" d="M85.63,714.41l.58.09Z"/><path class="cls-31" d="M65.52,708.71l.35.18Z"/><path class="cls-31" d="M71.71,711.25l.51.17Z"/><path class="cls-31" d="M74.15,712l.36.1Z"/><path class="cls-31" d="M59.68,703.28l.12.26Z"/><path class="cls-31" d="M113.07,716.47h0Z"/><path class="cls-31" d="M116.57,716.47h0Z"/><path class="cls-31" d="M144.07,714.45l.32-.05Z"/><path class="cls-31" d="M105.77,716.29l.61,0Z"/><path class="cls-31" d="M102.46,716.13l.37,0Z"/><path class="cls-31" d="M127.53,716.13h0Z"/><path class="cls-31" d="M140.94,714.89l.43,0Z"/><path class="cls-31" d="M134.22,715.64l.46,0Z"/><path class="cls-31" d="M123.78,716.31l.52,0Z"/><path class="cls-31" d="M115,568h0a20.32,20.32,0,0,0-4,.4A20.32,20.32,0,0,1,115,568Z"/><path class="cls-31" d="M92.27,715.29h0Z"/><path class="cls-31" d="M60.31,704.45l.11.19Z"/><path class="cls-31" d="M88.65,714.84l.57.08Z"/><path class="cls-31" d="M95.34,715.6l.65.06Z"/><path class="cls-31" d="M131,715.9l.3,0Z"/><path class="cls-31" d="M98.84,715.89l.32,0Z"/><path class="cls-26" d="M104.85,577.06c-.42,1.37-2.06,6.93-4.38,14.85a13.75,13.75,0,0,1-3.2-1.48l5.67-16.52a7,7,0,0,1,4-4.26,22.66,22.66,0,0,1,4-1.22,20.32,20.32,0,0,1,4-.4C110.91,568,106.82,570.71,104.85,577.06Z"/><path class="cls-31" d="M104.85,577.06c-.42,1.37-2.06,6.93-4.38,14.85a13.75,13.75,0,0,1-3.2-1.48l5.67-16.52a7,7,0,0,1,4-4.26,22.66,22.66,0,0,1,4-1.22,20.32,20.32,0,0,1,4-.4C110.91,568,106.82,570.71,104.85,577.06Z"/><path class="cls-31" d="M87.63,618.5a12.52,12.52,0,0,0,4.4,2.35c-2.81,9.64-5.73,19.71-8.41,29-2.72-1-4.69-2.15-5.55-3.46L68.59,674c.61,1.88,3,3.51,6.67,4.87-1,3.42-1.62,5.72-1.79,6.41-1.32,5.25-6.38,16.77,9.4,23,29.62,11.72,89.36,1,87.48-8.18h0l.37,1.08c0,5.4-7.8,9.37-19.27,11.91-2.09.43-3.61.69-4,.81l-.24.05q-1.24.22-2.55.42l-1,.16-1.79.26-1,.13c-1.92.25-3.9.47-5.92.66l-1.12.11-1.8.15-1.27.09-2.8.19-1.25.06-1.86.09-1.21,0q-3.15.12-6.33.15h-4.36c-2.09,0-4.19-.07-6.26-.15l-1.35-.06-1.64-.07-1.45-.08c-.92-.05-1.82-.11-2.72-.18l-1.41-.1-1.6-.14L95,715.56l-1.69-.17-1.63-.17L89.48,715l-1.3-.17-1.54-.22-1.15-.18q-2.71-.42-5.25-.94l-1-.2-1.51-.34-1-.22c-.73-.18-1.45-.36-2.16-.56l-.8-.22-1.43-.43-.82-.26c-.53-.17-1-.35-1.53-.53l-.5-.18c-.62-.23-1.21-.47-1.78-.72-.21-.08-.4-.17-.59-.26L66,709l-.53-.27c-.51-.27-1-.55-1.45-.83l-.23-.16c-.38-.25-.74-.5-1.08-.76l-.36-.29c-.3-.25-.59-.5-.85-.76l-.22-.22a8.65,8.65,0,0,1-.84-1c0-.07-.09-.15-.14-.23a5.66,5.66,0,0,1-.48-.86c-.05-.1-.09-.19-.13-.29a5.38,5.38,0,0,1-.34-1.1v0c0-.31-.08-.61-.09-.93v-.05Z"/><path class="cls-29" d="M92,620.85a12.52,12.52,0,0,1-4.4-2.35l9.64-28.07a13.75,13.75,0,0,0,3.2,1.48C98.16,599.8,95.17,610,92,620.85Z"/><path class="cls-32" d="M92,620.85a12.52,12.52,0,0,1-4.4-2.35l9.64-28.07a13.75,13.75,0,0,0,3.2,1.48C98.16,599.8,95.17,610,92,620.85Z"/><path class="cls-29" d="M68.59,674l9.48-27.61c.86,1.31,2.83,2.47,5.55,3.46-3.47,12-6.52,22.55-8.36,29C71.62,677.48,69.2,675.85,68.59,674Z"/><path class="cls-32" d="M68.59,674l9.48-27.61c.86,1.31,2.83,2.47,5.55,3.46-3.47,12-6.52,22.55-8.36,29C71.62,677.48,69.2,675.85,68.59,674Z"/><path class="cls-33" d="M49.76,707.27c2-5.85,5.58-12.7,11.75-12.7l-2.26,6.6c0,8.33,27.87,15.31,55.73,15.31s55.74-7,55.74-15.31l-2.26-6.6c6.17,0,9.71,6.85,11.75,12.7s-1.56,9.75-5.58,12.5c-7.28,5-24.89,11.06-59.65,11.06s-52.36-6.1-59.64-11.06C51.32,717,47.71,713.11,49.76,707.27Z"/><path class="cls-34" d="M49.76,707.27c.17-.49.36-1,.55-1.49C48.54,711.57,58,727,115.08,727c59.22,0,65.55-18.1,64.34-21.84.29.71.55,1.41.79,2.11,2,5.84-1.56,9.75-5.58,12.5-7.28,5-24.89,11.06-59.65,11.06s-52.36-6.1-59.64-11.06C51.32,717,47.71,713.11,49.76,707.27Z"/><path class="cls-35" d="M61.51,694.57l-2.26,6.6c0,8.33,27.87,15.31,55.73,15.31h0v14.35h0c-34.75,0-52.36-6.1-59.64-11.06-4-2.75-7.63-6.66-5.58-12.5S55.34,694.57,61.51,694.57Z"/></g></g></g></svg>