<svg width="17" height="17" viewBox="0 0 17 17" fill="none" xmlns="http://www.w3.org/2000/svg">
<path d="M7.5 3H2.44444C2.06135 3 1.69395 3.15218 1.42307 3.42307C1.15218 3.69395 1 4.06135 1 4.44444V14.5556C1 14.9386 1.15218 15.306 1.42307 15.5769C1.69395 15.8478 2.06135 16 2.44444 16H12.5556C12.9386 16 13.306 15.8478 13.5769 15.5769C13.8478 15.306 14 14.9386 14 14.5556V9.5" stroke="white" stroke-linecap="round" stroke-linejoin="round"/>
<path d="M13.1791 1.48399C13.489 1.1741 13.9093 1 14.3476 1C14.7858 1 15.2061 1.1741 15.516 1.48399C15.8259 1.79388 16 2.21418 16 2.65243C16 3.09068 15.8259 3.51099 15.516 3.82088L8.11586 11.221L5 12L5.77896 8.88414L13.1791 1.48399Z" stroke="white" stroke-linecap="round" stroke-linejoin="round"/>
</svg>
