<svg width="345" height="189" viewBox="0 0 345 189" fill="none" xmlns="http://www.w3.org/2000/svg">
<path d="M298.245 23.5879L293.126 125.49H260.691H258.678L261.495 23.6475H263.121V23.5879H298.245Z" fill="#7D2D45"/>
<path d="M212.257 4.98779L211.364 18.5205H207.625L207.992 4.98779H209.906H212.257Z" fill="#7D2D45"/>
<path d="M300 18.5205L299.881 23.5878H298.244H263.121L263.25 18.5205H300Z" fill="#A97996"/>
<path d="M214.022 0L213.457 4.98782H212.257H209.906L209.985 0H214.022Z" fill="#A97996"/>
<path d="M256.267 23.6475L256.307 30.1058H254.065L253.222 23.6475H256.267ZM246.021 23.6475L246.864 30.1058H249.096L249.056 23.6475H246.021ZM238.81 23.6475L239.653 30.1058H241.895L241.845 23.6475H238.81ZM231.609 23.6475L232.452 30.1058H234.684L234.644 23.6475H231.609ZM224.398 23.6475L225.241 30.1058H227.482L227.433 23.6475H224.398ZM217.187 23.6475L218.04 30.1058H220.271L220.232 23.6475H217.187ZM209.985 23.6475L210.828 30.1058H213.07L213.021 23.6475H209.985Z" fill="url(#paint0_linear)"/>
<path d="M84.8076 23.6475L84.8572 30.1058H82.6155L81.7724 23.6475H84.8076ZM73.6388 23.6475L74.4819 30.1058H76.7137L76.674 23.6475H73.6388ZM65.4953 23.6475L66.3384 30.1058H68.5801L68.5405 23.6475H65.4953ZM57.3618 23.6475L58.2049 30.1058H60.4466L60.397 23.6475H57.3618ZM49.2282 23.6475L50.0713 30.1058H52.3031L52.2634 23.6475H49.2282ZM41.0847 23.6475L41.9278 30.1058H44.1695L44.1299 23.6475H41.0847ZM32.9512 23.6475L33.7943 30.1058H36.036L35.9864 23.6475H32.9512Z" fill="url(#paint1_linear)"/>
<path d="M207.625 18.5205H211.364H263.25L263.121 23.5878V23.6474H261.495H256.267H253.222H249.056H246.021H241.845H238.81H234.644H231.609H227.433H224.398H220.232H217.187H213.021H209.985H206.573L205.621 18.5205H207.625Z" fill="url(#paint2_linear)"/>
<path d="M209.985 0L209.906 4.98782H207.992H88.2001H86.4543L86.375 0H209.985Z" fill="url(#paint3_linear)"/>
<path d="M90.908 18.5205L90.1442 23.5878H28.349H27.119L27 18.5205H86.6726H88.7952H90.908Z" fill="url(#paint4_linear)"/>
<path d="M31.5629 125.49H258.678H260.691L259.987 155H207.535H88.8251H30.2536L29.5493 125.49H31.5629Z" fill="#265397"/>
<path d="M81.7727 23.6474L82.6158 30.1057H84.8575L84.8079 23.6474H81.7727ZM57.3621 23.6474L58.2052 30.1057H60.4469L60.3973 23.6474H57.3621ZM65.4957 23.6474L66.3388 30.1057H68.5805L68.5408 23.6474H65.4957ZM73.6392 23.6474L74.4823 30.1057H76.714L76.6744 23.6474H73.6392ZM32.9515 23.6474L33.7946 30.1057H36.0363L35.9867 23.6474H32.9515ZM41.0851 23.6474L41.9282 30.1057H44.1699L44.1302 23.6474H41.0851ZM49.2286 23.6474L50.0717 30.1057H52.3034L52.2638 23.6474H49.2286ZM28.3491 23.5878H90.1443L90.9081 18.5205H88.7954L88.2002 4.98779H207.992L207.625 18.5205H205.621L206.573 23.6474H209.985L210.829 30.1057H213.07L213.021 23.6474H217.187L218.04 30.1057H220.271L220.232 23.6474H224.398L225.241 30.1057H227.482L227.433 23.6474H231.609L232.452 30.1057H234.684L234.644 23.6474H238.81L239.653 30.1057H241.895L241.845 23.6474H246.021L246.864 30.1057H249.096L249.056 23.6474H253.222L254.065 30.1057H256.307L256.267 23.6474H261.495L258.678 125.49H31.5629L28.3491 23.5878Z" fill="url(#paint5_linear)"/>
<path d="M151.344 84.2765L151.017 81.0473L157.881 81.1368L157.752 84.2268L151.344 84.2765ZM142.11 30.9009L135.454 30.8115L135.772 33.9413L141.991 33.8916L142.11 30.9009ZM134.214 48.8054L140.741 48.7557L140.88 45.606L133.887 45.5166L134.214 48.8054ZM149.648 11.0986L149.976 14.3477L156.423 14.298L156.552 11.1881L149.648 11.0986ZM156.75 34.5175L156.879 31.4672L150.114 31.3778L150.432 34.5573L156.75 34.5175ZM212.981 87.307L205.8 87.2175L206.137 90.5957L212.842 90.5461L212.981 87.307ZM168.455 37.3095L160.758 37.2102L161.125 40.8268L168.306 40.7772L168.455 37.3095ZM159.895 101.684L167.383 101.625L167.542 98.0079L159.518 97.8986L159.895 101.684ZM145.264 49.8983L137.845 49.7989L138.192 53.2865L145.125 53.2368L145.264 49.8983ZM121.964 75.5925L122.103 72.3733L114.962 72.2839L115.299 75.6422L121.964 75.5925ZM133.996 82.2397L141.207 82.19L141.356 78.7124L133.639 78.6131L133.996 82.2397ZM121.072 67.3557L121.221 63.8682L113.474 63.7688L113.841 67.4054L121.072 67.3557ZM126.17 116.012L126.319 112.544L118.622 112.445L118.989 116.061L126.17 116.012ZM211.245 108.699L211.394 105.142L203.479 105.043L203.855 108.759L211.245 108.699ZM115.418 19.8323L122.649 19.7826L122.798 16.2951L115.051 16.1957L115.418 19.8323ZM113.256 26.5688L120.615 26.5191L120.764 22.972L112.879 22.8727L113.256 26.5688ZM188.074 51.1105L193.52 51.0707L193.649 48.0701L186.983 47.9807L187.182 49.9281L180.467 49.8387L180.834 53.4355L187.985 53.3858L188.074 51.1105ZM187.023 37.9554L179.494 37.856L179.852 41.3932L186.884 41.3435L187.023 37.9554ZM184.355 60.3409L176.935 60.2416L177.283 63.7291L184.206 63.6794L184.355 60.3409ZM133.461 94.7191L125.426 94.6099L125.803 98.3855L133.302 98.3259L133.461 94.7191ZM200.543 65.915L200.572 65.3089L203.568 65.289L203.707 61.9108L196.208 61.8115L196.317 62.8448L193.976 62.815L194.294 65.9547L200.543 65.915ZM182.897 108.093L183.036 104.834L175.795 104.735L176.142 108.143L182.897 108.093ZM207.833 60.0727L215.342 60.0131L215.5 56.3865L207.456 56.2772L207.833 60.0727ZM169.417 49.6201L176.677 49.5704L176.826 46.073L169.05 45.9736L169.417 49.6201ZM208.498 100.83L208.627 97.6999L201.683 97.6105L202.011 100.879L208.498 100.83ZM176.43 12.0724L169.129 11.973L169.476 15.4009L176.291 15.3512L176.43 12.0724ZM187.797 101.466L194.472 101.416L194.611 98.1967L187.459 98.1073L187.797 101.466ZM202.278 69.9887L194.601 69.8893L194.968 73.4961L202.14 73.4464L202.278 69.9887ZM195.057 93.2387L187.529 93.1393L187.886 96.6765L194.909 96.6268L195.057 93.2387ZM193.272 83.7698L193.421 80.3816L185.892 80.2823L186.249 83.8195L193.272 83.7698ZM187.618 57.8967L187.936 61.0762L194.264 61.0265L194.393 57.9762L187.618 57.8967ZM196.099 40.2903L196.466 43.907L203.657 43.8573L203.806 40.3897L196.099 40.2903ZM189.384 23.131L196.922 23.0714L197.081 19.4348L189.007 19.3256L189.384 23.131ZM118.096 39.7538L124.752 39.7041L124.891 36.4948L117.769 36.4054L118.096 39.7538ZM29.9957 75.7913L32.1183 75.7714L32.2473 72.7509L29.8965 72.7211L29.9957 75.7913ZM31.791 100.452L31.9299 97.2727L30.6702 97.2528L30.7694 100.452H31.791ZM74.879 72.0653L75.0179 68.8163L67.8068 68.7268L68.1441 72.115L74.879 72.0653ZM45.2709 89.324L52.1051 89.2743L52.2439 85.9756L44.9237 85.8762L45.2709 89.324ZM41.9877 110.487L42.1365 106.95L34.2708 106.851L34.6477 110.547L41.9877 110.487ZM43.0094 54.3893L35.9768 54.2999L36.3141 57.6086L42.8804 57.5589L43.0094 54.3893ZM242.589 52.74L249.77 52.6903L249.919 49.2227L242.222 49.1233L242.589 52.74ZM40.8966 81.3057L34.1616 81.2163L34.4791 84.3858L40.7677 84.3361L40.8966 81.3057ZM230.19 35.849L237.263 35.7993L237.411 32.3913L229.833 32.2919L230.19 35.849ZM254.561 89.5028L247.053 89.4034L247.41 92.9307L254.413 92.881L254.561 89.5028ZM250.068 110.338L250.217 106.891L242.559 106.791L242.926 110.388L250.068 110.338ZM233.553 47.9707L240.635 47.9211L240.784 44.5031L233.196 44.4038L233.553 47.9707ZM234.813 80.6002L235.16 84.0381L241.994 83.9884L242.133 80.6897L234.813 80.6002ZM235.606 116.817L241.925 116.767L242.053 113.717L235.289 113.627L235.606 116.817ZM228.951 72.0355L229.318 75.7018L236.588 75.6522L236.737 72.1448L228.951 72.0355ZM243.879 67.5743L236.866 67.4848L237.193 70.7836L243.74 70.7339L243.879 67.5743ZM37.6432 40.2605L37.7722 37.23L31.0471 37.1406L31.3645 40.3002L37.6432 40.2605ZM91.3148 80.5406L91.4437 77.53L84.7583 77.4406L85.0757 80.5804L91.3148 80.5406ZM94.6277 52.0743L87.8828 51.9849L88.2002 55.1544L94.4988 55.1047L94.6277 52.0743ZM83.1614 72.423L76.3669 72.3336L76.6843 75.5329L83.0324 75.4832L83.1614 72.423ZM84.8377 27.9698L89.6782 27.93L89.817 24.6115L84.8179 24.5419L84.8377 27.9698ZM111.401 30.424L104.358 30.3345L104.695 33.6432L111.272 33.5935L111.401 30.424ZM73.1135 44.1454L79.5806 44.0957L79.7096 40.9759L72.7861 40.8865L73.1135 44.1454ZM81.2867 95.5935L81.4157 92.4538L74.4525 92.3643L74.7799 95.6432L81.2867 95.5935ZM83.7069 103.94L83.7169 103.999L90.2931 103.95L90.432 100.78L83.3796 100.691L83.3895 100.8L81.6239 100.78L81.9414 103.96L83.7069 103.94ZM71.6554 59.3573L78.559 59.3076L78.6978 55.9791L71.2983 55.8797L71.6554 59.3573ZM103.426 107.159L103.555 104.079L96.7107 103.989L97.038 107.209L103.426 107.159ZM109.119 80.7592L102.285 80.6698L102.613 83.8791L108.99 83.8294L109.119 80.7592ZM96.0561 120.99L96.2048 117.443L88.3193 117.343L88.6962 121.049L96.0561 120.99ZM97.415 63.1031L103.922 63.0534L104.051 59.9137L97.0777 59.8243L97.415 63.1031ZM98.9226 95.0868L92.0786 94.9973L92.4059 98.2166L98.7937 98.1669L98.9226 95.0868ZM96.8297 48.2788L103.049 48.2291L103.178 45.2284L96.5222 45.139L96.8297 48.2788ZM105.856 14.3179L98.1093 14.2185L98.4763 17.855L105.707 17.8054L105.856 14.3179Z" fill="url(#paint6_linear)"/>
<path d="M172.333 113.756L171.49 60.3903H184.92L184.077 113.756H172.333ZM181.389 111.024L182.143 63.1326H174.267L175.021 111.024H181.389ZM140.255 113.756L139.412 60.3903H152.832L151.999 113.756H140.255ZM149.311 111.024L150.065 63.1326H142.189L142.943 111.024H149.311ZM108.177 113.756L107.334 60.3903H120.754L119.921 113.756H108.177ZM117.233 111.024L117.987 63.1326H110.111L110.865 111.024H117.233ZM171.49 60.3505L171.182 40.6079H185.228L184.92 60.3505H171.49V60.3505ZM182.232 57.6182L182.46 43.3403H173.95L174.178 57.6182H182.232ZM139.412 60.3505L139.104 40.6079H153.15L152.842 60.3505H139.412V60.3505ZM150.154 57.6182L150.382 43.3403H141.872L142.1 57.6182H150.154ZM107.334 60.3505L107.026 40.6079H121.072L120.764 60.3505H107.334V60.3505ZM118.076 57.6182L118.304 43.3403H109.794L110.022 57.6182H118.076Z" fill="#7D2D45"/>
<path d="M171.331 113.756L170.488 60.3903H183.918L183.075 113.756H171.331ZM180.387 111.024L181.141 63.1326H173.265L174.019 111.024H180.387ZM139.253 113.756L138.41 60.3903H151.83L150.987 113.756H139.253ZM148.309 111.024L149.063 63.1326H141.187L141.941 111.024H148.309ZM107.175 113.756L106.332 60.3903H119.752L118.919 113.756H107.175ZM116.231 111.024L116.985 63.1326H109.109L109.863 111.024H116.231ZM170.488 60.3505L170.18 40.6079H184.226L183.918 60.3505H170.488V60.3505ZM181.23 57.6182L181.458 43.3403H172.948L173.176 57.6182H181.23ZM138.41 60.3505L138.092 40.6079H152.138L151.83 60.3505H138.41V60.3505ZM149.152 57.6182L149.38 43.3403H140.87L141.098 57.6182H149.152ZM106.332 60.3505L106.024 40.6079H120.07L119.762 60.3505H106.332V60.3505ZM117.074 57.6182L117.302 43.3403H108.792L109.02 57.6182H117.074Z" fill="url(#paint7_linear)"/>
<path d="M182.202 58.6118L182.46 42.3468H171.936L172.194 58.6118H182.202V58.6118ZM183.214 41.6016L182.936 59.357H171.46L171.182 41.6016H183.214V41.6016ZM150.124 58.6118L150.382 42.3468H139.858L140.116 58.6118H150.124V58.6118ZM151.136 41.6016L150.858 59.357H139.382L139.104 41.6016H151.136V41.6016ZM118.046 58.6118L118.304 42.3468H107.78L108.038 58.6118H118.046V58.6118ZM119.058 41.6016L118.78 59.357H107.304L107.026 41.6016H119.058V41.6016ZM181.359 112.017L182.143 62.1391H172.254L173.037 112.017H181.359ZM182.907 61.3839L182.093 112.762H172.303L171.49 61.3839H182.907V61.3839ZM149.281 112.017L150.065 62.1391H140.176L140.959 112.017H149.281ZM150.819 61.3839L150.015 112.762H140.225L139.412 61.3839H150.819V61.3839ZM117.203 112.017L117.987 62.1391H108.098L108.881 112.017H117.203ZM118.741 61.3839L117.937 112.762H108.147L107.334 61.3839H118.741V61.3839Z" fill="#42A4B8"/>
<path d="M117.987 62.139L117.203 112.017H108.881L108.098 62.139H117.987V62.139ZM107.78 42.3467L108.038 58.6117H118.046L118.304 42.3467H107.78V42.3467ZM140.176 62.139L140.959 112.017H149.281L150.065 62.139H140.176V62.139ZM139.858 42.3467L140.116 58.6117H150.124L150.382 42.3467H139.858V42.3467ZM171.936 42.3467L172.194 58.6117H182.202L182.46 42.3467H171.936V42.3467ZM172.254 62.139L173.037 112.017H181.359L182.143 62.139H172.254V62.139Z" fill="#9ECFFF"/>
<path d="M177.57 51.5871L177.56 42.3467H177.064L177.074 51.5871H172.084L172.094 52.0839H177.074V58.6117H177.57V52.0839H182.301L182.311 51.5871H177.57Z" fill="#42A4B8"/>
<path d="M181.944 74.6882L177.57 74.9068V62.1392H177.074V74.9366L172.461 75.1751V75.6719L177.074 75.4334L177.084 91.4103H172.709L172.719 91.9071H177.084L177.094 112.017H177.59L177.58 91.9071H181.676L181.686 91.4103H177.58L177.57 75.4036L181.934 75.185L181.944 74.6882Z" fill="#42A4B8"/>
<path d="M150.233 51.5871H145.244L145.254 42.3467H144.758L144.748 51.5871H140.007L140.017 52.0839H144.748V58.6117H145.244V52.0839H150.223L150.233 51.5871Z" fill="#42A4B8"/>
<path d="M118.145 52.0839L118.155 51.5871H113.285V42.3467H112.789V51.5871H107.929L107.939 52.0839H112.789L112.799 58.6117H113.295L113.285 52.0839H118.145Z" fill="#42A4B8"/>
<path d="M145.244 62.1392H144.748V74.9068L140.374 74.6882L140.383 75.185L144.748 75.4036L144.738 91.4103H140.631L140.641 91.9071H144.738L144.728 112.017H145.224L145.234 91.9071H149.598L149.608 91.4103H145.234L145.244 75.4334L149.856 75.6719V75.1751L145.244 74.9366V62.1392Z" fill="#42A4B8"/>
<path d="M117.788 74.6783L113.295 74.9068V62.1392H112.799V74.9366L108.306 75.1651V75.6619L112.799 75.4334L112.809 91.4103H108.554L108.564 91.9071H112.809L112.819 112.017H113.315L113.305 91.9071H117.52L117.53 91.4103H113.305L113.295 75.4036L117.778 75.1751L117.788 74.6783Z" fill="#42A4B8"/>
<path d="M90.1443 23.5879H28.3491L28.3987 25.2372L34.5187 25.3366L35.1436 30.1058H37.3853L37.3556 25.3863L42.6721 25.4658L43.2772 30.1058H45.5189L45.4891 25.5055L50.8354 25.5949L51.4207 30.1058H53.6524L53.6227 25.6347L58.9789 25.7241L59.5542 30.1058H61.7959L61.7662 25.7639L67.1323 25.8533L67.6878 30.1058H69.9295L69.9096 25.893L75.2956 25.9824L75.8313 30.1058H78.063L78.0432 26.0222L83.449 26.1017L83.9648 30.1058H86.2065L86.1768 26.1514L90.1443 26.211V23.5879Z" fill="#C7919A"/>
<path d="M261.494 23.5879H206.553L206.603 25.2372L212.038 25.3366L212.594 30.1058H214.588L214.558 25.3863L219.289 25.4658L219.825 30.1058H221.819L221.799 25.5055L226.54 25.5949L227.066 30.1058H229.049L229.03 25.6347L233.791 25.7241L234.297 30.1058H236.29L236.261 25.7639L241.032 25.8533L241.528 30.1058H243.521L243.501 25.893L248.292 25.9824L248.768 30.1058H250.752L250.732 26.0222L255.533 26.1017L255.999 30.1058H257.993L257.963 26.1514L261.494 26.211V23.5879Z" fill="#C7919A"/>
<path d="M88.2002 4.98779H207.992V9.26023L88.2895 7.12401L88.2002 4.98779Z" fill="#C7919A"/>
<path d="M29.7378 130.16L33.8046 130.587L29.7477 130.925L29.7378 130.16Z" fill="#E8A699"/>
<path d="M29.7974 133.677L33.8145 134.045L29.8073 134.403L29.7974 133.677Z" fill="#E8A699"/>
<path d="M29.8467 137.195L33.8242 137.513L29.8566 137.87L29.8467 137.195Z" fill="#E8A699"/>
<path d="M29.9062 140.712L33.8342 140.97L29.9162 141.338L29.9062 140.712Z" fill="#E8A699"/>
<path d="M29.9658 144.219L33.8441 144.438L29.9757 144.815L29.9658 144.219Z" fill="#E8A699"/>
<path d="M30.0254 147.737L33.8541 147.896L30.0254 148.283V147.737Z" fill="#E8A699"/>
<path d="M30.0752 151.254L33.8642 151.363L30.0851 151.751L30.0752 151.254Z" fill="#E8A699"/>
<path d="M295.14 125.49L294.435 155H259.987L260.691 125.49H293.126H295.14Z" fill="#0B1E3C"/>
<path d="M185.019 128.531L184.434 146.246H174.554L174.128 128.531H185.019ZM148.646 128.531V146.246H158.932L159.537 128.531H148.646ZM135.027 128.531L136.049 146.246H145.918V128.531H135.027ZM107.621 128.531L108.633 146.246H118.502V128.531H107.621Z" fill="#A7D3FF"/>
<path d="M118.503 147.429L109.387 148.025L109.179 153.857L108.802 147.429H118.503Z" fill="#AD522F"/>
<path d="M145.919 147.429L136.803 148.025L136.595 153.857L136.218 147.429H145.919Z" fill="#AD522F"/>
<path d="M158.357 147.429L149.231 148.025L149.023 153.857L148.646 147.429H158.357Z" fill="#AD522F"/>
<path d="M147.555 126.842H146.88V155H147.555V126.842Z" fill="#AD522F"/>
<path d="M184.394 147.429L175.259 148.025L174.852 153.857L174.684 147.429H184.394Z" fill="#AD522F"/>
<path d="M186.844 126.842L185.952 155H173.037L172.66 126.842H186.844ZM184.434 146.247L185.019 128.531H174.128L174.555 146.247H184.434ZM175.259 148.025L184.394 147.429H174.684L174.852 153.857L175.259 148.025Z" fill="url(#paint8_linear)"/>
<path d="M146.881 126.842V155H135.057L133.748 126.842H146.881ZM145.919 146.247V128.531H135.028L136.049 146.247H145.919ZM136.803 148.025L145.919 147.429H136.218L136.595 153.857L136.803 148.025Z" fill="url(#paint9_linear)"/>
<path d="M160.847 126.842L160.212 155H147.555V126.842H160.847ZM158.932 146.247L159.537 128.531H148.646V146.247H158.932ZM149.231 148.025L158.357 147.429H148.646L149.023 153.857L149.231 148.025Z" fill="url(#paint10_linear)"/>
<path d="M120.278 126.842L120.318 155H107.403L106.094 126.842H120.278ZM118.502 146.247V128.531H107.621L108.633 146.247H118.502ZM109.387 148.025L118.502 147.429H108.802L109.179 153.857L109.387 148.025Z" fill="url(#paint11_linear)"/>
<path d="M209.906 29.1717H207.694H204.401L138.301 3.16943L152.743 4.9877L209.906 29.1717Z" fill="#A97996"/>
<path d="M198.132 33.3151L198.261 31.2882H199.551V29.1719H204.401H207.694L207.377 31.3876H205.621L205.284 36.6536H200.642H197.924L198.132 33.3151Z" fill="#A97996"/>
<path d="M204.401 29.1717H199.55L138.301 5.96142L82.4965 29.1717H78.4297L138.301 3.16943L204.401 29.1717Z" fill="url(#paint12_linear)"/>
<path d="M200.641 36.6533L199.59 40.5879H198.677H197.378L196.833 38.094L185.892 37.4283L185.684 36.6533H197.924H200.641Z" fill="#E8A699"/>
<path d="M200.136 118.336L199.907 120.115H198.955H88.1999H87.2477L87.0195 118.336H89.1422H101.104H121.815H133.788H154.498H166.461H187.181H199.144H200.136Z" fill="url(#paint13_linear)"/>
<path d="M199.55 29.1717V31.288H198.261H83.786H82.4966V29.1717H84.4903L138.301 7.67041L196.357 29.1717H199.55ZM189.294 29.1717H190.266L138.767 9.26015L87.7834 29.1717H90.9079L139.025 10.4028L189.294 29.1717Z" fill="url(#paint14_linear)"/>
<path d="M199.55 29.1717H196.357L138.301 7.6704L84.4903 29.1717H82.4966L138.301 5.96143L199.55 29.1717Z" fill="#E8A699"/>
<path d="M198.3 115.256L199.143 118.336H187.181L187.33 117.79L196.703 117.323V115.256H197.725H198.3Z" fill="#E8A699"/>
<path d="M198.955 120.115L198.886 121.606L88.2394 120.92L88.1997 120.115H198.955Z" fill="#E8A699"/>
<path d="M198.886 121.606L197.299 155H185.952L186.844 126.842H172.66L173.037 155H160.212L160.847 126.842H147.555H146.881H133.748L135.057 155H120.318L120.278 126.842H106.094L107.403 155H89.8565L88.2397 120.92L198.886 121.606Z" fill="url(#paint15_linear)"/>
<path d="M198.678 40.5879L198.559 50.2257L196.773 49.0831L195.9 115.256H195.484L195.831 48.477L193.639 47.0661L193.371 115.256H192.954L192.677 46.4501L190.425 44.9994L190.951 115.256H190.524L189.443 44.3635L187.667 43.2308L187.638 40.5879H197.378H198.678Z" fill="#E8A699"/>
<path d="M198.559 50.2256L197.725 115.256H196.704H195.9L196.773 49.083L198.559 50.2256Z" fill="#E8A699"/>
<path d="M198.261 31.2881L198.132 33.315L83.8456 32.3115L83.7861 31.2881H198.261Z" fill="#E8A699"/>
<path d="M198.132 33.315L197.923 36.6535H185.683H167.958H153H135.285H120.317H102.602H87.6442H84.1229L83.8452 32.3115L198.132 33.315Z" fill="url(#paint16_linear)"/>
<path d="M196.833 38.0939L197.378 40.5878H187.638H186.735L185.892 37.4282L196.833 38.0939ZM195.9 115.256H195.484H193.371H192.954H190.951H190.524H188.59H188.015L187.33 117.79L196.704 117.323V115.256H195.9ZM193.639 47.066L193.371 115.256H195.484L195.831 48.4769L193.639 47.066ZM190.425 44.9994L190.951 115.256H192.954L192.677 46.45L190.425 44.9994ZM187.668 43.2308L188.59 115.256H190.524L189.443 44.3635L187.668 43.2308Z" fill="url(#paint17_linear)"/>
<path d="M190.266 29.1718H189.294L139.025 10.4029L90.9077 29.1718H87.7832L138.767 9.26025L190.266 29.1718Z" fill="#E8A699"/>
<path d="M167.958 36.6533L166.907 40.5879H166.004H164.705L164.149 38.094L153.209 37.4283L153 36.6533H167.958Z" fill="#E8A699"/>
<path d="M165.628 115.256L166.461 118.336H154.499L154.647 117.79L164.031 117.323V115.256H165.052H165.628Z" fill="#E8A699"/>
<path d="M166.004 40.5879L165.052 115.256H164.03H163.227L164.09 49.0831L165.875 50.2257L166.004 40.5879Z" fill="#E8A699"/>
<path d="M166.004 40.5879L165.875 50.2257L164.09 49.0831L163.227 115.256H162.8L163.157 48.477L160.955 47.0661L160.698 115.256H160.271L160.003 46.4501L157.742 44.9994L158.267 115.256H157.851L156.76 44.3635L154.994 43.2308L154.964 40.5879H164.705H166.004Z" fill="#E8A699"/>
<path d="M164.15 38.0939L164.705 40.5878H154.965H154.052L153.209 37.4282L164.15 38.0939ZM163.227 115.256H162.801H160.698H160.271H158.268H157.851H155.917H155.342L154.647 117.79L164.031 117.323V115.256H163.227ZM160.956 47.066L160.698 115.256H162.801L163.158 48.4769L160.956 47.066ZM157.742 44.9994L158.268 115.256H160.271L160.003 46.45L157.742 44.9994ZM154.994 43.2308L155.917 115.256H157.851L156.76 44.3635L154.994 43.2308Z" fill="url(#paint18_linear)"/>
<path d="M135.285 36.6533L134.234 40.5879H133.321H132.022L131.476 38.094L120.526 37.4283L120.317 36.6533H135.285Z" fill="#E8A699"/>
<path d="M132.945 115.256L133.788 118.336H121.815L121.964 117.79H121.974L131.348 117.323V115.256H132.369H132.945Z" fill="#E8A699"/>
<path d="M133.321 40.5879L133.202 50.2257L131.407 49.0831L130.544 115.256H130.127L130.474 48.477L128.272 47.0661L128.014 115.256H127.588L127.32 46.4501L125.068 44.9994L125.594 115.256H125.168L124.087 44.3635L122.311 43.2308L122.281 40.5879H132.022H133.321Z" fill="#E8A699"/>
<path d="M133.202 50.2256L132.369 115.256H131.347H130.544L131.407 49.083L133.202 50.2256Z" fill="#E8A699"/>
<path d="M131.476 38.0939L132.022 40.5878H122.282H121.369L120.526 37.4282L131.476 38.0939ZM130.544 115.256H130.127H128.015H127.588H125.594H125.168H123.234H122.658L121.964 117.79H121.974L131.347 117.323V115.256H130.544ZM128.273 47.066L128.015 115.256H130.127L130.475 48.4769L128.273 47.066ZM125.069 44.9994L125.594 115.256H127.588L127.32 46.45L125.069 44.9994ZM122.311 43.2308L123.234 115.256H125.168L124.087 44.3635L122.311 43.2308Z" fill="url(#paint19_linear)"/>
<path d="M102.602 36.6533L101.551 40.5879H100.638H99.3489L98.7935 38.094L87.8528 37.4283L87.6445 36.6533H102.602Z" fill="#E8A699"/>
<path d="M100.261 115.256L101.104 118.336H89.1421L89.2909 117.79L98.6643 117.323V115.256H99.6959H100.261Z" fill="#E8A699"/>
<path d="M100.638 40.5879L100.519 50.2257L98.7339 49.0831L97.8709 115.256H97.4444L97.8015 48.477L95.5995 47.0661L95.3316 115.256H94.9151L94.6373 46.4501L92.3857 44.9994L92.9114 115.256H92.4849L91.4037 44.3635L89.6382 43.2308L89.6084 40.5879H99.3488H100.638Z" fill="#E8A699"/>
<path d="M100.519 50.2256L99.6962 115.256H98.6646H97.8711L98.734 49.083L100.519 50.2256Z" fill="#E8A699"/>
<path d="M98.7932 38.0939L99.3486 40.5878H89.6082H88.6957L87.8525 37.4282L98.7932 38.0939ZM97.8707 115.256H97.4442H95.3314H94.9148H92.9112H92.4847H90.5604H89.9851L89.2908 117.79L98.6642 117.323V115.256H97.8707ZM95.5993 47.066L95.3314 115.256H97.4442L97.8013 48.4769L95.5993 47.066ZM92.3855 44.9994L92.9112 115.256H94.9148L94.6371 46.45L92.3855 44.9994ZM89.638 43.2308L90.5604 115.256H92.4847L91.4035 44.3635L89.638 43.2308Z" fill="url(#paint20_linear)"/>
<path d="M159.29 135.844L159.309 135.347H154.409L154.509 128.531H154.013L153.913 135.347H148.646V135.844H153.904L153.824 141.428H148.646V141.924H153.814L153.755 146.246H154.251L154.31 141.924H159.081L159.101 141.428H154.32L154.399 135.844H159.29Z" fill="#AD522F"/>
<path d="M184.791 135.347H179.742L179.524 128.531H179.028L179.246 135.347H174.297L174.307 135.844H179.256L179.435 141.428H174.436L174.456 141.924H179.455L179.584 146.246H180.08L179.951 141.924H184.573L184.593 141.428H179.931L179.752 135.844H184.781L184.791 135.347Z" fill="#AD522F"/>
<path d="M118.503 135.347H113.523L113.315 128.531H112.819L113.027 135.347H108.008L108.038 135.844H113.047L113.226 141.428H108.355L108.385 141.924H113.236L113.374 146.246H113.87L113.732 141.924H118.503V141.428H113.722L113.543 135.844H118.503V135.347Z" fill="#AD522F"/>
<path d="M145.919 135.347H140.731L140.523 128.531H140.027L140.235 135.347H135.424L135.444 135.844H140.245L140.414 141.428H135.771L135.801 141.924H140.433L140.562 146.246H141.058L140.929 141.924H145.919V141.428H140.91L140.741 135.844H145.919V135.347Z" fill="#AD522F"/>
<path d="M107.403 155L106.094 126.842H105.191L106.649 155H107.403Z" fill="#E8A699"/>
<path d="M133.748 126.842L135.057 155H133.787L132.607 126.842H133.748Z" fill="#E8A699"/>
<path d="M172.66 126.842L173.037 155H172.253L171.489 126.842H172.66Z" fill="#E8A699"/>
<path d="M198.945 126.096L191.863 126.474L198.945 126.841V126.096Z" fill="#E8A699"/>
<path d="M198.608 131.243L191.833 131.611L198.608 131.988V131.243Z" fill="#E8A699"/>
<path d="M198.271 136.38L191.793 136.757L198.271 137.125V136.38Z" fill="#E8A699"/>
<path d="M197.934 141.527L191.764 141.894L197.934 142.272V141.527Z" fill="#E8A699"/>
<path d="M197.596 146.673L191.724 147.041L197.596 147.419V146.673Z" fill="#E8A699"/>
<path d="M197.259 151.81L191.685 152.188L197.259 152.555V151.81Z" fill="#E8A699"/>
<path d="M204.401 118.336L204.024 120.115H203.26L201.485 155H197.299L198.886 121.605L198.955 120.115H199.908L200.136 118.336H204.401Z" fill="#A97996"/>
<path d="M88.5171 126.812L95.0041 126.464L88.4873 126.126L88.5171 126.812Z" fill="#E8A699"/>
<path d="M88.9731 136.4L89.0029 137.105L95.0733 136.758L88.9731 136.4Z" fill="#E8A699"/>
<path d="M88.7256 131.263L88.7653 131.958L95.0341 131.61L88.7256 131.263Z" fill="#E8A699"/>
<path d="M89.7075 151.82L89.7373 152.546L95.1729 152.188L89.7075 151.82Z" fill="#E8A699"/>
<path d="M89.2212 141.546L89.2509 142.252L95.1031 141.894L89.2212 141.546Z" fill="#E8A699"/>
<path d="M89.4595 146.683L89.4991 147.398L95.143 147.041L89.4595 146.683Z" fill="#E8A699"/>
<path d="M197.299 154.304L187.201 153.976V153.857L187.876 126.196L182.351 124.834L182.767 122.142L176.37 122.023L176.816 125.033L170.339 126.196L171.162 153.976H161.283V153.847L162.483 125.49L150.66 124.159L151.314 121.724H142.705L143.27 124.02L131.218 126.225L132.736 153.976H121.686L122.331 125.599L115.239 124.725L115.556 122.4H110.716L111.023 124.785L103.168 126.225L105.32 153.589L89.8265 154.304L89.8066 154.056L105.052 153.36L102.91 126.027L110.746 124.586L110.428 122.152H115.844L115.527 124.507L122.589 125.381V125.49L121.944 153.728H132.478L130.951 126.027L131.06 126.007L142.962 123.821L142.387 121.476H151.632L150.977 123.94L162.741 125.272L161.541 153.728H170.904L170.081 125.997L176.528 124.834L176.082 121.764L183.045 121.893L182.638 124.656L188.133 125.997L188.124 126.096L187.459 153.738L197.299 154.056V154.304Z" fill="#E8A699"/>
<path d="M344.93 180.036C343.738 174.571 331.625 172.966 316.189 175.96C321.686 174.108 329.238 169.89 333.148 167.961L330.473 166.282L335.846 166.529C340.24 163.993 342.436 161.499 341.003 159.243C339.932 157.559 337.579 156.857 334.389 156.866L332.71 159.831L333.059 156.908C325.017 157.366 323.192 156.071 312.346 160.397C319.123 156.926 320.105 155.849 320.548 154.454L316.877 152.869H321.179C324.657 149.179 330.174 141.876 327.885 138.51C325.996 135.732 317.707 139.587 312.415 141.589L310.166 146.589L310.621 142.319C293.797 149.549 299.498 143.748 299.498 143.748C299.498 143.748 317.062 107.903 306.714 108.71C302.628 109.028 298.237 111.457 293.924 115.348L293.815 118.91L292.531 116.649C289.389 119.689 286.277 123.367 283.308 127.318C287.336 118.973 290.388 110.778 290.694 104.676L287.619 104.31L290.653 102.228C290.368 99.1459 289.13 96.8138 286.622 95.581C282.776 93.6892 278.739 96.5496 274.763 102.236L275.745 107.366L273.28 104.492C259.048 127.375 246.034 183.715 246.034 183.715L245 186.771L286.812 188.808C286.812 188.808 347.34 191.075 344.93 180.036Z" fill="#50BFA5"/>
<path d="M23.8045 131.101L23.4897 133.47L22.734 130.729C20.6102 130.048 18.767 129.816 17.3072 130.153C4.24671 133.168 26.8156 151.409 26.8156 151.409C26.8156 151.409 19.6228 146.825 12.6589 143.921L12.5702 146.325L11.68 143.61C6.26746 141.459 1.24706 140.464 0.242405 143.569C-0.702141 146.494 1.1984 149.264 4.46996 151.729L8.23097 151.863L6.01558 152.808C13.5691 157.724 26.0657 161.238 30.3791 162.038C26.2518 161.381 16.1652 160.046 10.1859 161.357L11.1247 162.942L8.76335 161.744C6.67104 162.43 5.37158 163.564 5.51183 165.352C5.77802 168.767 20.3755 170 20.3755 170L73.7023 169.497L74 169.648C73.9943 169.642 40.9953 137.496 23.8045 131.101Z" fill="#3C8F7C"/>
<path d="M226.805 150.101L226.49 152.47L225.734 149.729C223.61 149.048 221.767 148.816 220.307 149.153C207.247 152.168 229.816 170.409 229.816 170.409C229.816 170.409 222.623 165.825 215.659 162.921L215.57 165.325L214.68 162.61C209.267 160.459 204.247 159.464 203.242 162.569C202.298 165.494 204.198 168.264 207.47 170.729L211.231 170.863L209.016 171.808C216.569 176.724 229.066 180.238 233.379 181.038C229.252 180.381 219.165 179.046 213.186 180.357L214.125 181.942L211.763 180.744C209.671 181.43 208.372 182.564 208.512 184.352C208.778 187.767 223.376 189 223.376 189L276.702 188.497L277 188.648C276.994 188.642 243.995 156.496 226.805 150.101Z" fill="#3C8F7C"/>
<defs>
<linearGradient id="paint0_linear" x1="233.146" y1="30.1859" x2="233.146" y2="23.0182" gradientUnits="userSpaceOnUse">
<stop offset="0.3065" stop-color="#FFFBE4"/>
<stop offset="1" stop-color="#FFE696"/>
</linearGradient>
<linearGradient id="paint1_linear" x1="58.9042" y1="30.4395" x2="58.9042" y2="22.3059" gradientUnits="userSpaceOnUse">
<stop offset="0.3065" stop-color="#FFFBE4"/>
<stop offset="1" stop-color="#FFE696"/>
</linearGradient>
<linearGradient id="paint2_linear" x1="205.621" y1="21.084" x2="263.25" y2="21.084" gradientUnits="userSpaceOnUse">
<stop offset="0.3065" stop-color="#FFFBE4"/>
<stop offset="1" stop-color="#FFE696"/>
</linearGradient>
<linearGradient id="paint3_linear" x1="86.375" y1="2.49391" x2="209.985" y2="2.49391" gradientUnits="userSpaceOnUse">
<stop offset="0.3065" stop-color="#FFFBE4"/>
<stop offset="1" stop-color="#FFE696"/>
</linearGradient>
<linearGradient id="paint4_linear" x1="27" y1="21.0542" x2="90.908" y2="21.0542" gradientUnits="userSpaceOnUse">
<stop offset="0.3065" stop-color="#FFFBE4"/>
<stop offset="1" stop-color="#FFE696"/>
</linearGradient>
<linearGradient id="paint5_linear" x1="145.848" y1="130.115" x2="144.493" y2="-25.1382" gradientUnits="userSpaceOnUse">
<stop stop-color="#FF8759"/>
<stop offset="0.1587" stop-color="#F77D56"/>
<stop offset="0.4327" stop-color="#E3614D"/>
<stop offset="0.7866" stop-color="#C2343F"/>
<stop offset="1" stop-color="#AB1535"/>
</linearGradient>
<linearGradient id="paint6_linear" x1="143.45" y1="144.86" x2="140.4" y2="-14.1145" gradientUnits="userSpaceOnUse">
<stop stop-color="#FF8759"/>
<stop offset="0.2335" stop-color="#EF7152"/>
<stop offset="0.717" stop-color="#C53940"/>
<stop offset="1" stop-color="#AB1535"/>
</linearGradient>
<linearGradient id="paint7_linear" x1="144.668" y1="116.871" x2="145.176" y2="31.4641" gradientUnits="userSpaceOnUse">
<stop offset="0.3065" stop-color="#FFFBE4"/>
<stop offset="1" stop-color="#FFE696"/>
</linearGradient>
<linearGradient id="paint8_linear" x1="178.793" y1="158.896" x2="179.81" y2="125.03" gradientUnits="userSpaceOnUse">
<stop offset="0.00558659" stop-color="#FFAF4D"/>
<stop offset="0.119" stop-color="#F2923C"/>
<stop offset="0.2436" stop-color="#E7792D"/>
<stop offset="0.3184" stop-color="#E36F27"/>
<stop offset="0.5094" stop-color="#D76826"/>
<stop offset="0.853" stop-color="#B85423"/>
<stop offset="1" stop-color="#A84A21"/>
</linearGradient>
<linearGradient id="paint9_linear" x1="139.812" y1="157.726" x2="140.828" y2="123.86" gradientUnits="userSpaceOnUse">
<stop offset="0.00558659" stop-color="#FFAF4D"/>
<stop offset="0.119" stop-color="#F2923C"/>
<stop offset="0.2436" stop-color="#E7792D"/>
<stop offset="0.3184" stop-color="#E36F27"/>
<stop offset="0.5094" stop-color="#D76826"/>
<stop offset="0.853" stop-color="#B85423"/>
<stop offset="1" stop-color="#A84A21"/>
</linearGradient>
<linearGradient id="paint10_linear" x1="153.369" y1="158.133" x2="154.385" y2="124.267" gradientUnits="userSpaceOnUse">
<stop offset="0.00558659" stop-color="#FFAF4D"/>
<stop offset="0.119" stop-color="#F2923C"/>
<stop offset="0.2436" stop-color="#E7792D"/>
<stop offset="0.3184" stop-color="#E36F27"/>
<stop offset="0.5094" stop-color="#D76826"/>
<stop offset="0.853" stop-color="#B85423"/>
<stop offset="1" stop-color="#A84A21"/>
</linearGradient>
<linearGradient id="paint11_linear" x1="112.727" y1="156.913" x2="113.744" y2="123.047" gradientUnits="userSpaceOnUse">
<stop offset="0.00558659" stop-color="#FFAF4D"/>
<stop offset="0.119" stop-color="#F2923C"/>
<stop offset="0.2436" stop-color="#E7792D"/>
<stop offset="0.3184" stop-color="#E36F27"/>
<stop offset="0.5094" stop-color="#D76826"/>
<stop offset="0.853" stop-color="#B85423"/>
<stop offset="1" stop-color="#A84A21"/>
</linearGradient>
<linearGradient id="paint12_linear" x1="141.465" y1="27.4463" x2="142.397" y2="-4.43303" gradientUnits="userSpaceOnUse">
<stop offset="0.3065" stop-color="#FFFBE4"/>
<stop offset="1" stop-color="#FFE696"/>
</linearGradient>
<linearGradient id="paint13_linear" x1="144.033" y1="157.577" x2="143.525" y2="113.943" gradientUnits="userSpaceOnUse">
<stop stop-color="#FFFBE4"/>
<stop offset="1" stop-color="#FFE696"/>
</linearGradient>
<linearGradient id="paint14_linear" x1="141.034" y1="33.2377" x2="140.949" y2="8.03863" gradientUnits="userSpaceOnUse">
<stop offset="0.3065" stop-color="#FFFBE4"/>
<stop offset="1" stop-color="#FFE696"/>
</linearGradient>
<linearGradient id="paint15_linear" x1="143.984" y1="157.578" x2="143.476" y2="113.944" gradientUnits="userSpaceOnUse">
<stop stop-color="#FFFBE4"/>
<stop offset="1" stop-color="#FFE696"/>
</linearGradient>
<linearGradient id="paint16_linear" x1="140.988" y1="39.0648" x2="140.988" y2="29.6785" gradientUnits="userSpaceOnUse">
<stop offset="0.3065" stop-color="#FFFBE4"/>
<stop offset="1" stop-color="#FFE696"/>
</linearGradient>
<linearGradient id="paint17_linear" x1="185.892" y1="77.609" x2="197.378" y2="77.609" gradientUnits="userSpaceOnUse">
<stop stop-color="#FFFBE4"/>
<stop offset="1" stop-color="#FFE696"/>
</linearGradient>
<linearGradient id="paint18_linear" x1="153.962" y1="77.609" x2="164.092" y2="77.609" gradientUnits="userSpaceOnUse">
<stop stop-color="#FFFBE4"/>
<stop offset="1" stop-color="#FFE696"/>
</linearGradient>
<linearGradient id="paint19_linear" x1="120.526" y1="77.609" x2="132.022" y2="77.609" gradientUnits="userSpaceOnUse">
<stop offset="0.3065" stop-color="#FFFBE4"/>
<stop offset="1" stop-color="#FFE696"/>
</linearGradient>
<linearGradient id="paint20_linear" x1="87.8525" y1="77.609" x2="99.3486" y2="77.609" gradientUnits="userSpaceOnUse">
<stop offset="0.3065" stop-color="#FFFBE4"/>
<stop offset="1" stop-color="#FFE696"/>
</linearGradient>
</defs>
</svg>
