<svg xmlns="http://www.w3.org/2000/svg" viewBox="0 0 830.2 348.01"><defs><style>.cls-1,.cls-12,.cls-17,.cls-18{fill:none;}.cls-1,.cls-17,.cls-18{stroke:#9bbcbb;stroke-linecap:round;stroke-linejoin:round;}.cls-1,.cls-12,.cls-13,.cls-17,.cls-18{stroke-width:2px;}.cls-1{stroke-dasharray:5;}.cls-2{fill:#383566;}.cls-3{fill:#ebf1f6;}.cls-4{fill:#f0d5d5;}.cls-5{fill:#15bfc8;}.cls-6{fill:#3a508d;}.cls-7{fill:#15b7b7;}.cls-8{fill:#f7c9b0;}.cls-9{fill:#fd7379;}.cls-10{fill:#d64f56;}.cls-11,.cls-13{fill:#fff;}.cls-12,.cls-13{stroke:#383566;stroke-miterlimit:10;}.cls-14{fill:#edf3f8;}.cls-15{fill:#f0f6f9;}.cls-16{fill:#f4f8fb;}.cls-18{stroke-dasharray:4.88 4.88;}.cls-19{fill:#9bb6c8;}.cls-20{fill:#4a6371;}</style></defs><g id="Layer_2" data-name="Layer 2"><g id="Layer_1-2" data-name="Layer 1"><path class="cls-1" d="M167.24,113.09a105.83,105.83,0,0,1-37.17-10.57A107.1,107.1,0,0,1,89,66.13"/><path class="cls-2" d="M413.8,114.66h0a63.59,63.59,0,0,1,63.59,63.59V321.08a0,0,0,0,1,0,0H350.21a0,0,0,0,1,0,0V178.25A63.59,63.59,0,0,1,413.8,114.66Z"/><path class="cls-3" d="M246.91,253.57V93.92H177L64,255.39v52.44H182.47L182,318.26h64.18V307.83h28.43V253.57Zm-57.92.26H126.65L189,161.74Z"/><path class="cls-3" d="M522.39,179.42V318.26h-45v-140a63.59,63.59,0,0,0-127.18,0v140h-45V179.42a108.59,108.59,0,1,1,217.18,0Z"/><path class="cls-3" d="M552.13,172.57h60.26s-1.18-29,29-29,26.22,35.22,26.22,35.22-2.74,24.26-25.43,24.26h-29V252H646s26.22,1,26.22,33.59-30.52,29.8-30.52,29.8-33.27,2-33.27-34H549s1.56,31.16,14.47,36.91h160s23.48-65.09-38-92.48c0,0,39.91-10.95,39.91-64.95s-58.69-64.57-58.69-64.57S552.13,76.3,552.13,172.57Z"/><rect class="cls-2" x="30.24" y="315.65" width="731.48" height="7.3"/><path class="cls-4" d="M311.38,244.19c-2.27,2.85-1.55,7-.5,9.42.34.79,2.05,4.42,5.31,5.32,1.06.29,1.48.07,4.31.6,2.18.41,2.42.63,3.11.5,2.42-.45,3.64-4,3.91-4.81s2.11-6.48-1.41-10.53C322.4,240.43,314.58,240.18,311.38,244.19Z"/><path class="cls-5" d="M279.44,308a23.21,23.21,0,0,1-12.29,4.41c-7.62.53-5.88,6.81-5.88,6.81h27.79s.94-11.09-1.6-11.22S279.44,308,279.44,308Z"/><path class="cls-2" d="M312.18,248.7c-5-1.85-7.95-10-5.61-12.83,1.28-1.55,3.94-1.26,8.22-.8,1.21.13,3.16.42,12,3.41,4.75,1.6,5.17,1.86,5.62,2.41,3.75,4.66-2.43,16.62-5.42,16.23-2.07-.27-1.14-6.34-5.21-8.42C318.47,247,316,250.11,312.18,248.7Z"/><path class="cls-6" d="M277.57,308.17s10.16-37.42,21.11-37.28,19.78,26.45,23.72,27.25,18,11.23,18,11.23,1.87,7.89-1.07,9.89-17.34,2.81-19.63,0-14.18-18.84-16.85-24.72-12.56,13-14.44,15.23C288.39,309.77,283.58,311.51,277.57,308.17Z"/><path class="cls-4" d="M320.1,286.59s-6.62,1.76-8,1.28-16.84-16-16.84-16-5.61-1.51-3.6,4.2,19.17,22.89,24.25,22.05c3.22-.53,14.53-6.91,14.53-6.91Z"/><path class="cls-5" d="M324.81,258.22a16.17,16.17,0,0,0-8.22,4.11,18.55,18.55,0,0,0-5.41,8.62,20.29,20.29,0,0,0-.8,4.61,22.18,22.18,0,0,0,2.3,10.93,4.3,4.3,0,0,0,.8,1.4c2.42,2.28,7.66-1.65,9.43.1,1.27,1.27-.06,4.7-1.31,6.52-.27.39-2.54,3.6-5.71,3.6-1.48,0-2.07-.7-2.81-.3-1.78,1-.55,6.38-.5,6.62.11.47,2.7,10.82,10.53,12.93,5.44,1.46,8.21-2.46,15.33-.81a5.7,5.7,0,0,0,3.61,0c2.49-1,3.52-4.1,4.11-6.51,4.06-16.78-.91-33.27-.91-33.27-2.22-7.39-3.68-12-8.31-15.34C336,260.72,331.1,257.23,324.81,258.22Z"/><path class="cls-7" d="M322.4,269.75s2.21,11.63,0,16.24c0,0,3.71-10,3-15.24Z"/><path class="cls-5" d="M287.11,264l5-1.29a.62.62,0,0,1,.69.29l5,8.52a.61.61,0,0,1-.29.89l-4.74,2a.63.63,0,0,1-.78-.27l-5.23-9.24A.62.62,0,0,1,287.11,264Z"/><path class="cls-8" d="M533,160.47c-3.55,2.56-4.78,7.23-4.23,11,.1.7.82,5.55,4.53,7.69s7.72.06,8.9,2.11c.8,1.4-.85,2.75,0,4.83.73,1.78,2.94,3.26,4.52,2.87,2.51-.62,3.1-5.81,3.63-10.41.91-8,1.36-12-1.06-15.09C545.9,159.16,538.13,156.76,533,160.47Z"/><path class="cls-2" d="M542.93,169.07c-2.8-1.27-2.81-2.72-5.73-4.83-3.07-2.21-3.94-1.24-7.39-3.47-2.27-1.46-4.94-3.17-5.43-5.73-.83-4.24,4.42-10.3,9.2-10.26,4.55.05,4.81,5.59,14,11.62,4.53,3,6.55,3,8,5.58,2.62,4.72-.53,11.06-1.81,13.73-1.47,3-3.75,6.25-4.68,5.88-1.4-.54,1.91-8.45-1.36-11.16C546.48,169.36,545.6,170.28,542.93,169.07Z"/><path class="cls-8" d="M522.42,214s-5.28,3.32-6.49,2.87-17.65-16.15-19.46-16.6-6.64,1.36-2.72,7.09,19.31,21.42,21.57,24.59,15.24-7.84,15.24-7.84Z"/><path class="cls-9" d="M526.79,250.69s-3.17,2.26-3.32,8-1.05,74.37-1.05,74.37h11.46s4.23-54.76,6.49-58.23,16.14-18.71,12.37-22.78S526.79,250.69,526.79,250.69Z"/><path class="cls-10" d="M540.37,248.88s-3.47,20.52,0,31.23,10.71,47.07,10.56,49.78,4.07,3.17,4.07,3.17,6,1.66,6,0-3.77-48.27-3.17-51.74,2.26-32,1.36-32.44S540.37,248.88,540.37,248.88Z"/><path class="cls-2" d="M519,214.48s8.75-26.4,17.65-27.45,6.11,0,6.11,0,3.9,2.38,6.13-.47,18.83,2.58,16.57,18.27-3.92,3.47-4.67,27.45-1.06,20.82-1.06,20.82H524.29s-.37-22.78,1.29-25.49S529.51,216.44,519,214.48Z"/><path class="cls-2" d="M524.23,331.86s-6.19,6.33-11.77,7.54-13.28.75-13.73,5,31.83,4.22,34.4,2.71-.61-15.23-.61-15.23Z"/><path class="cls-2" d="M553.19,331.86s-6.18,6.33-11.77,7.54-13.27.75-13.72,5,31.83,4.22,34.39,2.71-.6-15.23-.6-15.23Z"/><path class="cls-11" d="M413.8,120.26h0A58.21,58.21,0,0,1,472,178.47V316.9a0,0,0,0,1,0,0H355.59a0,0,0,0,1,0,0V178.47a58.21,58.21,0,0,1,58.21-58.21Z"/><line class="cls-12" x1="382.68" y1="124.04" x2="382.68" y2="318.83"/><line class="cls-12" x1="414.14" y1="117.13" x2="414.14" y2="318.83"/><line class="cls-12" x1="445.59" y1="124.04" x2="445.59" y2="318.83"/><circle class="cls-13" cx="414.14" cy="175.3" r="23.48"/><circle class="cls-12" cx="414.14" cy="175.3" r="14.4"/><circle class="cls-2" cx="381.68" cy="227.09" r="6.65"/><rect class="cls-2" x="427.72" y="229.32" width="35.74" height="15.13"/><polyline class="cls-12" points="433.72 231.41 445.59 216.54 457.72 231.41"/><circle class="cls-2" cx="445.33" cy="215.89" r="3.78"/><rect class="cls-14" x="504.59" width="38.35" height="16.04"/><rect class="cls-15" x="504.59" y="43.83" width="49.3" height="16.04"/><rect class="cls-15" x="262.95" y="43.83" width="49.3" height="16.04"/><rect class="cls-16" x="523.76" y="19.96" width="49.3" height="16.04"/><rect class="cls-14" y="114.85" width="38.35" height="16.04"/><rect class="cls-15" y="158.67" width="49.3" height="16.04"/><rect class="cls-16" x="19.17" y="134.8" width="49.3" height="16.04"/><rect class="cls-15" x="761.72" y="158.67" width="49.3" height="16.04"/><rect class="cls-16" x="780.9" y="134.8" width="49.3" height="16.04"/><path class="cls-17" d="M182.47,307.83l2.48-.34"/><path class="cls-18" d="M189.77,306.74c49.42-8.31,79.58-32.46,78.82-53.17-.11-3.16-1.23-13.79-17.64-26.11"/><path class="cls-17" d="M249,226c-.66-.47-1.35-.94-2.06-1.41"/><path class="cls-1" d="M187.49,220.91c-3.11,1.63-45.18,23-72.68,2.92-3.72-2.72-18.69-13.65-16.44-28.57,1.57-10.33,10.88-19.16,23.51-22.56"/><path class="cls-1" d="M176.63,180a102.84,102.84,0,0,0,27.59,5.67c10.43.68,24.64,1.6,38.55-6.26,6.35-3.59,15.41-8.71,17-18.39,1.46-8.79-3.71-18.33-12.88-24.85"/><polygon class="cls-19" points="76.82 70.44 64.04 50.87 85.43 57.91 76.82 70.44"/><polygon class="cls-19" points="64.04 50.87 95.61 49.3 89.08 55.56 64.04 50.87"/><polygon class="cls-20" points="64.04 50.87 90.69 54.02 88.82 64.96 83.55 60.65 64.04 50.87"/></g></g></svg>