<svg width="40" height="40" viewBox="0 0 40 40" fill="none" xmlns="http://www.w3.org/2000/svg">
<g filter="url(#filter0_d)">
<path fill-rule="evenodd" clip-rule="evenodd" d="M4 4.76588C4 2.13376 6.13375 0 8.76587 0C11.398 0 13.5317 2.13375 13.5317 4.76587V12.2551C13.5317 14.7143 11.6692 16.7385 9.27774 16.9938V19.5722L16.356 22.4679H19.4907V16.9943C17.0982 16.74 15.2345 14.7153 15.2345 12.2554V4.76616C15.2345 2.13404 17.3682 0.000283049 20.0004 0.000283049C22.6325 0.000283049 24.7662 2.13404 24.7662 4.76616V12.2554C24.7662 14.7147 22.9035 16.7389 20.5119 16.9941V22.4679H23.6441L30.7223 19.5722V16.9941C28.3311 16.7385 26.4687 14.7145 26.4687 12.2554V4.76616C26.4687 2.13404 28.6024 0.000283049 31.2345 0.000283049C33.8667 0.000283049 36.0004 2.13404 36.0004 4.76616V12.2554C36.0004 14.7155 34.1364 16.7403 31.7436 16.9944V20.2578L26.3413 22.4679H31.2339C33.866 22.4679 35.9998 24.6016 35.9998 27.2337C35.9998 29.8659 33.866 31.9996 31.2339 31.9996H8.76618C6.13406 31.9996 4.00031 29.8659 4.00031 27.2337C4.00031 24.6016 6.13406 22.4679 8.76618 22.4679H13.6588L8.25648 20.2578V16.9941C5.86388 16.7399 4 14.7151 4 12.2551V4.76588Z" fill="url(#paint0_linear)"/>
</g>
<defs>
<filter id="filter0_d" x="0" y="0" width="40.0004" height="39.9996" filterUnits="userSpaceOnUse" color-interpolation-filters="sRGB">
<feFlood flood-opacity="0" result="BackgroundImageFix"/>
<feColorMatrix in="SourceAlpha" type="matrix" values="0 0 0 0 0 0 0 0 0 0 0 0 0 0 0 0 0 0 127 0"/>
<feOffset dy="4"/>
<feGaussianBlur stdDeviation="2"/>
<feColorMatrix type="matrix" values="0 0 0 0 0.241667 0 0 0 0 0.241667 0 0 0 0 0.241667 0 0 0 0.25 0"/>
<feBlend mode="normal" in2="BackgroundImageFix" result="effect1_dropShadow"/>
<feBlend mode="normal" in="SourceGraphic" in2="effect1_dropShadow" result="shape"/>
</filter>
<linearGradient id="paint0_linear" x1="20" y1="32" x2="20" y2="0" gradientUnits="userSpaceOnUse">
<stop stop-color="white"/>
<stop offset="0.244792" stop-color="white"/>
<stop offset="0.635417" stop-color="white" stop-opacity="0.88"/>
<stop offset="1" stop-color="white" stop-opacity="0.68"/>
</linearGradient>
</defs>
</svg>
