<svg width="41" height="41" viewBox="0 0 41 41" fill="none" xmlns="http://www.w3.org/2000/svg">
<g filter="url(#filter0_d)">
<path d="M9.22679 28.7524C10.7155 28.7524 11.9223 27.5456 11.9223 26.0569C11.9223 24.5682 10.7155 23.3613 9.22679 23.3613C7.73809 23.3613 6.53125 24.5682 6.53125 26.0569C6.53125 27.5456 7.73809 28.7524 9.22679 28.7524Z" fill="url(#paint0_linear)"/>
<path d="M20.01 28.7524C21.4987 28.7524 22.7055 27.5456 22.7055 26.0569C22.7055 24.5682 21.4987 23.3613 20.01 23.3613C18.5213 23.3613 17.3145 24.5682 17.3145 26.0569C17.3145 27.5456 18.5213 28.7524 20.01 28.7524Z" fill="url(#paint1_linear)"/>
<path d="M30.7912 28.7524C32.28 28.7524 33.4868 27.5456 33.4868 26.0569C33.4868 24.5682 32.28 23.3613 30.7912 23.3613C29.3025 23.3613 28.0957 24.5682 28.0957 26.0569C28.0957 27.5456 29.3025 28.7524 30.7912 28.7524Z" fill="url(#paint2_linear)"/>
<path d="M16.5664 17.2208V19.681H23.4547V17.2208C22.9627 15.789 21.6143 14.7607 20.0106 14.7607C18.4068 14.7607 17.0584 15.789 16.5664 17.2208Z" fill="url(#paint3_linear)"/>
<path d="M14.7812 33H25.2367C24.7121 30.5745 22.568 28.7524 20.0089 28.7524C17.4499 28.7524 15.3059 30.5745 14.7812 33Z" fill="url(#paint4_linear)"/>
<path d="M25.5645 33H36.0199C35.4953 30.5745 33.3512 28.7524 30.7921 28.7524C28.2331 28.7524 26.0891 30.5745 25.5645 33Z" fill="url(#paint5_linear)"/>
<path d="M9.22776 28.7524C6.66879 28.7524 4.52467 30.5745 4 33H14.4554C13.9309 30.5745 11.7867 28.7524 9.22776 28.7524Z" fill="url(#paint6_linear)"/>
<path d="M20.0111 12.3005C21.0301 12.3005 21.8562 11.4744 21.8562 10.4554C21.8562 9.43642 21.0301 8.61035 20.0111 8.61035C18.9921 8.61035 18.166 9.43642 18.166 10.4554C18.166 11.4744 18.9921 12.3005 20.0111 12.3005Z" fill="url(#paint7_linear)"/>
<path d="M13.86 18.4508C13.86 16.2619 15.0102 14.3378 16.7372 13.2476C16.0944 12.4952 15.705 11.5203 15.705 10.4554C15.705 8.08153 17.6363 6.15026 20.0102 6.15026C22.3841 6.15026 24.3154 8.08153 24.3154 10.4554C24.3154 11.5202 23.926 12.4952 23.2832 13.2476C25.0102 14.3378 26.1605 16.2619 26.1605 18.4508V19.6808H36.0009V0H4.01953V19.6808H13.86V18.4508Z" fill="url(#paint8_linear)"/>
</g>
<defs>
<filter id="filter0_d" x="0" y="0" width="40.0199" height="41" filterUnits="userSpaceOnUse" color-interpolation-filters="sRGB">
<feFlood flood-opacity="0" result="BackgroundImageFix"/>
<feColorMatrix in="SourceAlpha" type="matrix" values="0 0 0 0 0 0 0 0 0 0 0 0 0 0 0 0 0 0 127 0"/>
<feOffset dy="4"/>
<feGaussianBlur stdDeviation="2"/>
<feColorMatrix type="matrix" values="0 0 0 0 0.225 0 0 0 0 0.225 0 0 0 0 0.225 0 0 0 0.25 0"/>
<feBlend mode="normal" in2="BackgroundImageFix" result="effect1_dropShadow"/>
<feBlend mode="normal" in="SourceGraphic" in2="effect1_dropShadow" result="shape"/>
</filter>
<linearGradient id="paint0_linear" x1="9.22676" y1="28.7525" x2="9.22676" y2="23.3613" gradientUnits="userSpaceOnUse">
<stop stop-color="white"/>
<stop offset="0.260417" stop-color="white"/>
<stop offset="0.71875" stop-color="white" stop-opacity="0.83"/>
<stop offset="1" stop-color="white" stop-opacity="0.71"/>
</linearGradient>
<linearGradient id="paint1_linear" x1="20.01" y1="28.7525" x2="20.01" y2="23.3613" gradientUnits="userSpaceOnUse">
<stop stop-color="white"/>
<stop offset="0.260417" stop-color="white"/>
<stop offset="0.71875" stop-color="white" stop-opacity="0.83"/>
<stop offset="1" stop-color="white" stop-opacity="0.71"/>
</linearGradient>
<linearGradient id="paint2_linear" x1="30.7912" y1="28.7525" x2="30.7912" y2="23.3613" gradientUnits="userSpaceOnUse">
<stop stop-color="white"/>
<stop offset="0.260417" stop-color="white"/>
<stop offset="0.71875" stop-color="white" stop-opacity="0.83"/>
<stop offset="1" stop-color="white" stop-opacity="0.71"/>
</linearGradient>
<linearGradient id="paint3_linear" x1="20.0105" y1="19.681" x2="20.0105" y2="14.7607" gradientUnits="userSpaceOnUse">
<stop stop-color="white"/>
<stop offset="0.260417" stop-color="white"/>
<stop offset="0.71875" stop-color="white" stop-opacity="0.83"/>
<stop offset="1" stop-color="white" stop-opacity="0.71"/>
</linearGradient>
<linearGradient id="paint4_linear" x1="20.0089" y1="33" x2="20.0089" y2="28.7524" gradientUnits="userSpaceOnUse">
<stop stop-color="white"/>
<stop offset="0.260417" stop-color="white"/>
<stop offset="0.71875" stop-color="white" stop-opacity="0.83"/>
<stop offset="1" stop-color="white" stop-opacity="0.71"/>
</linearGradient>
<linearGradient id="paint5_linear" x1="30.7921" y1="33" x2="30.7921" y2="28.7524" gradientUnits="userSpaceOnUse">
<stop stop-color="white"/>
<stop offset="0.260417" stop-color="white"/>
<stop offset="0.71875" stop-color="white" stop-opacity="0.83"/>
<stop offset="1" stop-color="white" stop-opacity="0.71"/>
</linearGradient>
<linearGradient id="paint6_linear" x1="9.22766" y1="33" x2="9.22766" y2="28.7524" gradientUnits="userSpaceOnUse">
<stop stop-color="white"/>
<stop offset="0.260417" stop-color="white"/>
<stop offset="0.71875" stop-color="white" stop-opacity="0.83"/>
<stop offset="1" stop-color="white" stop-opacity="0.71"/>
</linearGradient>
<linearGradient id="paint7_linear" x1="20.0111" y1="12.3006" x2="20.0111" y2="8.61035" gradientUnits="userSpaceOnUse">
<stop stop-color="white"/>
<stop offset="0.260417" stop-color="white"/>
<stop offset="0.71875" stop-color="white" stop-opacity="0.83"/>
<stop offset="1" stop-color="white" stop-opacity="0.71"/>
</linearGradient>
<linearGradient id="paint8_linear" x1="20.01" y1="19.6811" x2="20.01" y2="3.33612e-07" gradientUnits="userSpaceOnUse">
<stop stop-color="white"/>
<stop offset="0.260417" stop-color="white"/>
<stop offset="0.71875" stop-color="white" stop-opacity="0.83"/>
<stop offset="1" stop-color="white" stop-opacity="0.71"/>
</linearGradient>
</defs>
</svg>
