<svg width="62" height="40" viewBox="0 0 62 40" fill="none" xmlns="http://www.w3.org/2000/svg">
<g filter="url(#filter0_d)">
<path d="M17.0482 2.4747C15.2484 0.674909 7.59948 0.22504 5.12478 0C4.89984 0 4.6748 3.51993e-07 4.44987 0.224935C4.22493 0.449975 4 0.899949 4 1.12488V21.3722C4 22.0471 4.44997 22.497 5.12488 22.497H11.874C12.324 22.497 12.7738 22.2721 12.9989 21.8221C12.9989 21.1472 17.0483 9.2238 17.4983 3.37465C17.4982 3.14961 17.4982 2.69974 17.0482 2.4747Z" fill="white"/>
<path d="M41.1298 7.87416C38.8801 7.19925 36.8554 6.29941 35.0556 5.6245C31.0061 3.8247 29.2064 4.72465 25.6069 8.32413C24.0321 9.89889 22.9072 12.1487 23.1322 13.0485C23.1322 13.2734 23.1322 13.2734 23.5821 13.4985C24.707 13.9484 26.2818 14.1734 27.8565 11.6987C28.0815 11.4737 28.3065 11.2487 28.7564 11.2487C29.4313 11.2487 29.6562 11.0238 30.3311 10.7987C30.7811 10.5738 31.231 10.3488 31.9059 10.1238C32.1308 10.1238 32.1308 10.1238 32.3559 10.1238C32.5808 10.1238 33.0308 10.3488 33.2557 10.3488C34.3807 11.4737 36.4054 13.0485 38.4302 14.8483C41.5798 17.323 44.7293 20.0226 46.3041 22.0474H46.5291C44.9543 17.5479 42.2547 9.89889 41.1298 7.87416Z" fill="white"/>
<path d="M56.875 2.25C48.1012 2.25 43.1519 4.49966 42.9269 4.49966C42.7019 4.7246 42.4769 4.94964 42.252 5.17457C42.252 5.39951 42.252 5.84948 42.4769 6.07442C43.8267 8.32408 48.3261 20.6975 49.001 23.847C49.226 24.297 49.676 24.7468 50.1259 24.7468H56.875C57.5499 24.7468 57.9999 24.2969 57.9999 23.622V3.37467C57.9999 2.69997 57.5499 2.25 56.875 2.25Z" fill="white"/>
<path d="M44.7241 24.2957C43.8243 22.271 39.9998 19.3464 36.6252 16.6468C34.8255 15.0719 33.0257 13.7221 31.6759 12.5972C31.451 12.8221 31.001 12.8221 31.001 13.0472C30.3261 13.2721 30.1012 13.4971 29.2012 13.4971C27.4015 15.7468 25.1517 16.6466 22.6772 15.7468C21.5523 15.5219 20.8774 14.6219 20.6524 13.7221C20.2025 11.4724 22.2272 8.3228 23.802 6.74805H19.3026C18.4028 11.2475 16.8279 17.0966 15.7031 20.2462C16.603 21.1461 17.5029 22.271 18.1778 22.7209C22.4522 26.3204 27.4016 29.92 28.3015 30.5949C28.9764 31.0449 30.3262 31.4948 31.0011 31.4948C31.226 31.4948 31.4511 31.4948 31.676 31.4948L28.0764 27.8952C27.6265 27.4452 27.6265 26.7703 28.0764 26.3204C28.5264 25.8705 29.2013 25.8704 29.6512 26.3204L34.1506 30.8198C34.6006 31.2698 35.0505 31.0448 35.5004 31.0448C36.1753 30.8198 36.4003 30.3699 36.6253 29.695L31.451 24.5206C31.001 24.0707 31.001 23.3957 31.451 22.9459C31.9009 22.496 32.5759 22.4959 33.0257 22.9459L38.6499 28.5701C38.8749 28.795 39.7748 28.795 40.4497 28.5701C40.6747 28.3451 41.1246 28.1201 41.3496 27.6702L35.0505 21.371C34.6005 20.921 34.6005 20.2461 35.0505 19.7963C35.5004 19.3464 36.1753 19.3463 36.6252 19.7963L43.1494 26.3204C43.5993 26.5454 44.0492 26.3204 44.4992 26.0955C44.7241 25.8704 45.1741 25.1955 44.7241 24.2957Z" fill="white"/>
</g>
<defs>
<filter id="filter0_d" x="0" y="0" width="61.9999" height="39.4948" filterUnits="userSpaceOnUse" color-interpolation-filters="sRGB">
<feFlood flood-opacity="0" result="BackgroundImageFix"/>
<feColorMatrix in="SourceAlpha" type="matrix" values="0 0 0 0 0 0 0 0 0 0 0 0 0 0 0 0 0 0 127 0"/>
<feOffset dy="4"/>
<feGaussianBlur stdDeviation="2"/>
<feColorMatrix type="matrix" values="0 0 0 0 0.0875 0 0 0 0 0.0875 0 0 0 0 0.0875 0 0 0 0.25 0"/>
<feBlend mode="normal" in2="BackgroundImageFix" result="effect1_dropShadow"/>
<feBlend mode="normal" in="SourceGraphic" in2="effect1_dropShadow" result="shape"/>
</filter>
</defs>
</svg>
