<svg width="62" height="63" viewBox="0 0 62 63" fill="none" xmlns="http://www.w3.org/2000/svg">
<g filter="url(#filter0_d)">
<path d="M21.9448 12.8174C19.7712 11.5935 20.8739 6.96568 21.0206 6.32823C21.301 5.14896 21.6644 3.61272 23.0094 2.35058C26.356 -0.811153 33.9671 -0.568924 35.3503 1.80237C36.4212 3.63184 33.642 6.52584 32.3033 7.92185C29.5113 10.8222 24.3161 14.1497 21.9448 12.8174Z" fill="white"/>
<path d="M31.7436 2.66779C32.7571 1.06142 36.3013 2.04309 36.7858 2.17695C37.6909 2.42556 38.8638 2.75065 39.8009 3.80244C42.1403 6.43509 41.7132 12.1721 39.8455 13.1474C38.3985 13.8996 36.2503 11.7068 35.2113 10.6486C33.0503 8.45579 30.6344 4.42076 31.7436 2.66779Z" fill="white"/>
<path d="M41.0287 21.9845C40.9713 22.6091 40.8375 24.0048 40.1237 25.5408C39.7222 26.4011 39.1486 27.2998 38.2946 28.1283C35.8154 30.5565 32.7308 30.7285 31.5199 30.7285C31.4243 30.7285 31.3351 30.7285 31.265 30.7222C31.1375 30.7222 30.736 30.7094 30.1624 30.6202C30.1369 30.6138 30.1114 30.6138 30.0859 30.6074C28.4608 30.3589 25.5546 29.5622 23.4833 26.962C23.0181 26.382 22.6484 25.7702 22.3425 25.152C20.8575 22.1247 21.1316 18.9636 21.5713 18.8362C22.1258 18.6768 23.3367 23.1763 25.1212 23.068C25.9625 23.017 26.0389 21.9973 27.5813 21.2261C28.6711 20.678 29.6525 20.678 31.061 20.678C32.82 20.678 34.152 20.678 35.159 21.5639C36.0066 22.3159 35.8664 23.0297 36.4591 23.1317C37.5171 23.3229 39.0211 21.2006 39.7349 20.1937C40.232 19.4926 40.4615 19.0465 40.6909 19.1038C41.1179 19.2122 41.1307 20.9266 41.0287 21.9845Z" fill="white"/>
<path d="M29.3935 18.8454H24.7083C24.2876 18.8454 23.9434 18.5012 23.9434 18.0805V14.5618C23.9434 14.1411 24.2876 13.7969 24.7083 13.7969H29.3935C29.8142 13.7969 30.1585 14.1411 30.1585 14.5618V18.0805C30.1585 18.5012 29.8142 18.8454 29.3935 18.8454Z" fill="white"/>
<path d="M38.206 18.8454H33.5208C33.1001 18.8454 32.7559 18.5012 32.7559 18.0805V14.5618C32.7559 14.1411 33.1001 13.7969 33.5208 13.7969H38.206C38.6267 13.7969 38.9709 14.1411 38.9709 14.5618V18.0805C38.9709 18.5012 38.6267 18.8454 38.206 18.8454Z" fill="white"/>
<path d="M58 54.0033H4C4 47.8468 6.49829 42.2703 10.5325 38.2361C14.0186 34.7499 18.6456 32.4173 23.8142 31.8438L31.4621 50.5108L39.0653 31.9521C49.7786 33.5773 58 42.8311 58 54.0033Z" fill="white"/>
<path d="M27.9414 31.8438H31.1478H33.9334L31.1478 35.4517L27.9414 31.8438Z" fill="white"/>
<path d="M30.1627 34.3438L28.5117 45.4799L31.4567 50.5157L33.93 45.703L31.9985 34.3438H30.1627Z" fill="white"/>
</g>
<defs>
<filter id="filter0_d" x="0" y="0" width="62" height="62.0033" filterUnits="userSpaceOnUse" color-interpolation-filters="sRGB">
<feFlood flood-opacity="0" result="BackgroundImageFix"/>
<feColorMatrix in="SourceAlpha" type="matrix" values="0 0 0 0 0 0 0 0 0 0 0 0 0 0 0 0 0 0 127 0"/>
<feOffset dy="4"/>
<feGaussianBlur stdDeviation="2"/>
<feColorMatrix type="matrix" values="0 0 0 0 0.0875 0 0 0 0 0.0875 0 0 0 0 0.0875 0 0 0 0.25 0"/>
<feBlend mode="normal" in2="BackgroundImageFix" result="effect1_dropShadow"/>
<feBlend mode="normal" in="SourceGraphic" in2="effect1_dropShadow" result="shape"/>
</filter>
</defs>
</svg>
