<svg width="62" height="55" viewBox="0 0 62 55" fill="none" xmlns="http://www.w3.org/2000/svg">
<g filter="url(#filter0_d)">
<path d="M30.9969 22.9483C36.1003 22.9483 40.2379 17.923 40.2379 11.7242C40.2379 5.52527 38.8792 0.5 30.9969 0.5C23.1142 0.5 21.7559 5.52527 21.7559 11.7242C21.756 17.923 25.8934 22.9483 30.9969 22.9483Z" fill="white"/>
<path d="M48.4268 39.6341C48.2558 28.8354 46.8454 25.7584 36.0532 23.8105C36.0532 23.8105 34.5338 25.7463 30.9929 25.7463C27.4521 25.7463 25.9329 23.8105 25.9329 23.8105C15.2584 25.737 13.762 28.7685 13.5654 39.2832C13.5494 40.1418 13.542 40.1869 13.5391 40.0871C13.5396 40.2739 13.5405 40.6193 13.5405 41.2217C13.5405 41.2217 16.1099 46.4014 30.9931 46.4014C45.8762 46.4014 48.4459 41.2217 48.4459 41.2217C48.4459 40.8348 48.4462 40.5655 48.4465 40.3826C48.4436 40.4442 48.4376 40.3247 48.4268 39.6341Z" fill="white"/>
<path d="M43.8325 20.945C47.9776 20.945 51.3378 16.8636 51.3378 11.829C51.3378 6.79428 50.2345 2.71289 43.8325 2.71289C42.7557 2.71289 41.829 2.82875 41.0319 3.04504C42.5106 5.77097 42.7132 9.08193 42.7132 11.7248C42.7132 14.7173 41.9021 17.5742 40.4082 19.9398C41.435 20.581 42.5985 20.945 43.8325 20.945Z" fill="white"/>
<path d="M57.9838 34.4961C57.8447 25.7256 56.6994 23.2266 47.9341 21.6445C47.9341 21.6445 46.7002 23.2168 43.8243 23.2168C43.7054 23.2168 43.5901 23.2132 43.4766 23.2081C45.3038 24.0319 46.9661 25.179 48.1903 26.8576C50.3066 29.7595 50.7931 33.6577 50.8935 39.3845C56.7906 38.2192 57.9992 35.7858 57.9992 35.7858C57.9992 35.4686 57.9992 35.2511 57.9998 35.1024C57.9974 35.1547 57.9925 35.061 57.9838 34.4961Z" fill="white"/>
<path d="M18.174 20.9448C19.4081 20.9448 20.5713 20.5808 21.5985 19.9398C20.1047 17.5742 19.2935 14.7173 19.2935 11.7248C19.2935 9.08179 19.4962 5.77084 20.9746 3.04504C20.1776 2.82875 19.2511 2.71289 18.174 2.71289C11.7719 2.71289 10.6689 6.79428 10.6689 11.829C10.6689 16.8634 14.0291 20.9448 18.174 20.9448Z" fill="white"/>
<path d="M18.5229 23.2081C18.4097 23.2132 18.2944 23.2168 18.1752 23.2168C15.2993 23.2168 14.0654 21.6445 14.0654 21.6445C5.30037 23.2266 4.15481 25.7255 4.016 34.4961C4.00695 35.0611 4.00236 35.1547 4 35.1023C4.00028 35.251 4.00056 35.4685 4.00056 35.7856C4.00056 35.7856 5.20927 38.2191 11.1059 39.3844C11.2068 33.6577 11.6931 29.7595 13.8096 26.8574C15.0336 25.1791 16.6957 24.0319 18.5229 23.2081Z" fill="white"/>
</g>
<defs>
<filter id="filter0_d" x="0" y="0.5" width="61.9998" height="53.9014" filterUnits="userSpaceOnUse" color-interpolation-filters="sRGB">
<feFlood flood-opacity="0" result="BackgroundImageFix"/>
<feColorMatrix in="SourceAlpha" type="matrix" values="0 0 0 0 0 0 0 0 0 0 0 0 0 0 0 0 0 0 127 0"/>
<feOffset dy="4"/>
<feGaussianBlur stdDeviation="2"/>
<feColorMatrix type="matrix" values="0 0 0 0 0.0875 0 0 0 0 0.0875 0 0 0 0 0.0875 0 0 0 0.25 0"/>
<feBlend mode="normal" in2="BackgroundImageFix" result="effect1_dropShadow"/>
<feBlend mode="normal" in="SourceGraphic" in2="effect1_dropShadow" result="shape"/>
</filter>
</defs>
</svg>
