<svg width="159" height="90" viewBox="0 0 159 90" fill="none" xmlns="http://www.w3.org/2000/svg">
<rect width="159" height="89.8" fill="black" fill-opacity="0.7"/>
<circle cx="79.5" cy="44.5" r="16.5" fill="white"/>
<path d="M84.3529 44.1758H75.2941C74.5794 44.1758 74 44.7552 74 45.4699V49.9993C74 50.714 74.5794 51.2934 75.2941 51.2934H84.3529C85.0677 51.2934 85.6471 50.714 85.6471 49.9993V45.4699C85.6471 44.7552 85.0677 44.1758 84.3529 44.1758Z" stroke="#6A6A6A" stroke-linecap="round" stroke-linejoin="round"/>
<path d="M76.5879 44.1761V41.5878C76.5879 40.7298 76.9288 39.9069 77.5355 39.3001C78.1422 38.6934 78.9651 38.3525 79.8232 38.3525C80.6812 38.3525 81.5041 38.6934 82.1109 39.3001C82.7176 39.9069 83.0585 40.7298 83.0585 41.5878V44.1761" stroke="#6A6A6A" stroke-linecap="round" stroke-linejoin="round"/>
</svg>
