<svg width="33" height="33" viewBox="0 0 33 33" fill="none" xmlns="http://www.w3.org/2000/svg">
<circle cx="16.5" cy="16.5" r="16.5" fill="white"/>
<path d="M21.3529 16.1765H12.2941C11.5794 16.1765 11 16.7559 11 17.4706V22C11 22.7148 11.5794 23.2942 12.2941 23.2942H21.3529C22.0677 23.2942 22.6471 22.7148 22.6471 22V17.4706C22.6471 16.7559 22.0677 16.1765 21.3529 16.1765Z" stroke="#6A6A6A" stroke-linecap="round" stroke-linejoin="round"/>
<path d="M13.5879 16.1766V13.5883C13.5879 12.7303 13.9288 11.9074 14.5355 11.3006C15.1422 10.6939 15.9651 10.353 16.8232 10.353C17.6812 10.353 18.5041 10.6939 19.1109 11.3006C19.7176 11.9074 20.0585 12.7303 20.0585 13.5883V16.1766" stroke="#6A6A6A" stroke-linecap="round" stroke-linejoin="round"/>
</svg>
