<svg width="31" height="27" viewBox="0 0 31 27" fill="none" xmlns="http://www.w3.org/2000/svg">
<path d="M6.27114 13.8952C10.1461 13.8952 12.5236 11.2301 12.5236 6.94758V6.9292C12.5236 2.66508 10.1461 0 6.27114 0C2.37742 0 0 2.66508 0 6.9292V6.94758C0 11.2301 2.37742 13.8952 6.27114 13.8952ZM9.06039 26.7611L26.1141 0.238938H21.9583L4.88587 26.7611H9.06039ZM6.27114 10.8441C4.75483 10.8441 3.91244 9.46562 3.91244 6.94758V6.9292C3.91244 4.42954 4.75483 3.05106 6.27114 3.05106C7.76872 3.05106 8.59239 4.42954 8.59239 6.9292V6.94758C8.59239 9.46562 7.76872 10.8441 6.27114 10.8441ZM24.7476 27C28.6226 27 31 24.3349 31 20.0524V20.034C31 15.7699 28.6226 13.1048 24.7476 13.1048C20.8539 13.1048 18.4764 15.7699 18.4764 20.034V20.0524C18.4764 24.3349 20.8539 27 24.7476 27ZM24.7476 23.9489C23.2313 23.9489 22.3889 22.5705 22.3889 20.0524V20.034C22.3889 17.5344 23.2313 16.1559 24.7476 16.1559C26.2452 16.1559 27.0688 17.5344 27.0688 20.034V20.0524C27.0688 22.5705 26.2452 23.9489 24.7476 23.9489Z" fill="white"/>
</svg>
