<svg width="46" height="40" viewBox="0 0 46 40" fill="none" xmlns="http://www.w3.org/2000/svg">
<g filter="url(#filter0_d)">
<path d="M22.8214 15.6501C26.3794 15.6501 29.2639 12.1467 29.2639 7.82511C29.2639 3.50344 28.3167 0 22.8214 0C17.3259 0 16.3789 3.50344 16.3789 7.82511C16.379 12.1467 19.2635 15.6501 22.8214 15.6501Z" fill="url(#paint0_linear)"/>
<path d="M34.9768 27.2821C34.8576 19.7536 33.8743 17.6085 26.3504 16.2505C26.3504 16.2505 25.2911 17.6 22.8225 17.6C20.3539 17.6 19.2948 16.2505 19.2948 16.2505C11.8529 17.5935 10.8097 19.707 10.6726 27.0375C10.6615 27.6361 10.6563 27.6675 10.6543 27.598C10.6547 27.7282 10.6553 27.969 10.6553 28.3889C10.6553 28.3889 12.4466 32 22.8226 32C33.1986 32 34.9902 28.3889 34.9902 28.3889C34.9902 28.1192 34.9903 27.9314 34.9905 27.8039C34.9885 27.8469 34.9843 27.7636 34.9768 27.2821Z" fill="url(#paint1_linear)"/>
<path d="M31.7643 14.2532C34.6541 14.2532 36.9967 11.4078 36.9967 7.89791C36.9967 4.38788 36.2275 1.54248 31.7643 1.54248C31.0135 1.54248 30.3675 1.62326 29.8118 1.77405C30.8427 3.67447 30.9839 5.98275 30.9839 7.82528C30.9839 9.9115 30.4184 11.9033 29.377 13.5524C30.0928 13.9995 30.9039 14.2532 31.7643 14.2532Z" fill="url(#paint2_linear)"/>
<path d="M41.6354 23.7004C41.5384 17.5859 40.74 15.8437 34.6291 14.7407C34.6291 14.7407 33.7689 15.8369 31.7639 15.8369C31.681 15.8369 31.6006 15.8344 31.5215 15.8308C32.7954 16.4051 33.9543 17.2048 34.8077 18.3751C36.2831 20.3982 36.6223 23.1158 36.6923 27.1084C40.8036 26.296 41.6461 24.5995 41.6461 24.5995C41.6461 24.3784 41.6462 24.2267 41.6465 24.1231C41.6449 24.1595 41.6415 24.0942 41.6354 23.7004Z" fill="url(#paint3_linear)"/>
<path d="M13.8826 14.2532C14.743 14.2532 15.554 13.9994 16.2701 13.5524C15.2287 11.9033 14.6631 9.9115 14.6631 7.82528C14.6631 5.98265 14.8044 3.67437 15.8351 1.77405C15.2795 1.62326 14.6336 1.54248 13.8826 1.54248C9.41936 1.54248 8.65039 4.38788 8.65039 7.89791C8.65039 11.4078 10.993 14.2532 13.8826 14.2532Z" fill="url(#paint4_linear)"/>
<path d="M14.1249 15.8308C14.0459 15.8344 13.9655 15.8369 13.8824 15.8369C11.8775 15.8369 11.0173 14.7407 11.0173 14.7407C4.90657 15.8437 4.10793 17.5858 4.01115 23.7004C4.00485 24.0943 4.00165 24.1595 4 24.123C4.00019 24.2266 4.00039 24.3783 4.00039 24.5994C4.00039 24.5994 4.84306 26.2959 8.95402 27.1083C9.02432 23.1159 9.36333 20.3982 10.8389 18.375C11.6923 17.2049 12.851 16.4051 14.1249 15.8308Z" fill="url(#paint5_linear)"/>
</g>
<defs>
<filter id="filter0_d" x="0" y="0" width="45.6465" height="40" filterUnits="userSpaceOnUse" color-interpolation-filters="sRGB">
<feFlood flood-opacity="0" result="BackgroundImageFix"/>
<feColorMatrix in="SourceAlpha" type="matrix" values="0 0 0 0 0 0 0 0 0 0 0 0 0 0 0 0 0 0 127 0"/>
<feOffset dy="4"/>
<feGaussianBlur stdDeviation="2"/>
<feColorMatrix type="matrix" values="0 0 0 0 0.225 0 0 0 0 0.225 0 0 0 0 0.225 0 0 0 0.25 0"/>
<feBlend mode="normal" in2="BackgroundImageFix" result="effect1_dropShadow"/>
<feBlend mode="normal" in="SourceGraphic" in2="effect1_dropShadow" result="shape"/>
</filter>
<linearGradient id="paint0_linear" x1="22.8213" y1="15.6503" x2="22.8213" y2="2.65287e-07" gradientUnits="userSpaceOnUse">
<stop stop-color="white"/>
<stop offset="0.244792" stop-color="white"/>
<stop offset="0.635417" stop-color="white" stop-opacity="0.91"/>
<stop offset="1" stop-color="white" stop-opacity="0.62"/>
</linearGradient>
<linearGradient id="paint1_linear" x1="22.8223" y1="32.0002" x2="22.8223" y2="16.2505" gradientUnits="userSpaceOnUse">
<stop stop-color="white"/>
<stop offset="0.244792" stop-color="white"/>
<stop offset="0.635417" stop-color="white" stop-opacity="0.91"/>
<stop offset="1" stop-color="white" stop-opacity="0.62"/>
</linearGradient>
<linearGradient id="paint2_linear" x1="33.1868" y1="14.2534" x2="33.1868" y2="1.54248" gradientUnits="userSpaceOnUse">
<stop stop-color="white"/>
<stop offset="0.244792" stop-color="white"/>
<stop offset="0.635417" stop-color="white" stop-opacity="0.91"/>
<stop offset="1" stop-color="white" stop-opacity="0.62"/>
</linearGradient>
<linearGradient id="paint3_linear" x1="36.5839" y1="27.1086" x2="36.5839" y2="14.7407" gradientUnits="userSpaceOnUse">
<stop stop-color="white"/>
<stop offset="0.244792" stop-color="white"/>
<stop offset="0.635417" stop-color="white" stop-opacity="0.91"/>
<stop offset="1" stop-color="white" stop-opacity="0.62"/>
</linearGradient>
<linearGradient id="paint4_linear" x1="12.4602" y1="14.2533" x2="12.4602" y2="1.54248" gradientUnits="userSpaceOnUse">
<stop stop-color="white"/>
<stop offset="0.244792" stop-color="white"/>
<stop offset="0.635417" stop-color="white" stop-opacity="0.91"/>
<stop offset="1" stop-color="white" stop-opacity="0.62"/>
</linearGradient>
<linearGradient id="paint5_linear" x1="9.06236" y1="27.1085" x2="9.06236" y2="14.7407" gradientUnits="userSpaceOnUse">
<stop stop-color="white"/>
<stop offset="0.244792" stop-color="white"/>
<stop offset="0.635417" stop-color="white" stop-opacity="0.91"/>
<stop offset="1" stop-color="white" stop-opacity="0.62"/>
</linearGradient>
</defs>
</svg>
